<?xml version="1.0" standalone="no"?>
<!DOCTYPE svg PUBLIC "-//W3C//DTD SVG 1.1//EN" "http://www.w3.org/Graphics/SVG/1.1/DTD/svg11.dtd" >
<svg>
<metadata>
Created by FontForge 20090914 at Mon Nov  7 21:35:44 2016
 By www-data
Copr.1990 Emigre Graphics
</metadata>
<defs>
<font id="Matrix-Bold" horiz-adv-x="458" >
  <font-face 
    font-family="Matrix"
    font-weight="700"
    font-stretch="normal"
    units-per-em="1000"
    panose-1="2 11 8 0 0 0 0 0 0 0"
    ascent="800"
    descent="-200"
    x-height="415"
    cap-height="590"
    bbox="-114 -179.999 821 791"
    underline-thickness="58"
    underline-position="-28"
    unicode-range="U+0020-U+2122"
  />
<missing-glyph horiz-adv-x="502" 
d="M-1 0h500v500h-500v-500zM9 10v480h480v-480h-480z" />
    <glyph glyph-name=".notdef" horiz-adv-x="502" 
d="M-1 0h500v500h-500v-500zM9 10v480h480v-480h-480z" />
    <glyph glyph-name="space" unicode=" " horiz-adv-x="250" 
 />
    <glyph glyph-name="exclam" unicode="!" horiz-adv-x="271" 
d="M97 154h81l30 469h-140zM200 54c0 17.333 -6 32.166 -18 44.499s-26.667 18.5 -44 18.5s-32.166 -6.16699 -44.499 -18.5s-18.5 -27.166 -18.5 -44.499s6.16699 -32 18.5 -44s27.166 -18 44.499 -18s32 6 44 18s18 26.667 18 44z" />
    <glyph glyph-name="quotedbl" unicode="&#x22;" horiz-adv-x="401" 
d="M172 553c1.33301 4.66699 2.00195 9.33398 2.00195 14.001c0 15.333 -6.33301 29.333 -19 42s-27.334 19 -44.001 19s-31.334 -6.33301 -44.001 -19s-19 -26.667 -19 -42c0 -4.66699 0.666992 -9.33398 2 -14.001l61 -183zM351.002 553
c1.33301 4.66699 2.00195 9.33398 2.00195 14.001c0 15.333 -6.33301 29.333 -19 42s-27.334 19 -44.001 19s-31.334 -6.33301 -44.001 -19s-19 -26.667 -19 -42c0 -4.66699 0.666992 -9.33398 2 -14.001l61 -183z" />
    <glyph glyph-name="numbersign" unicode="#" horiz-adv-x="292" 
d="M50 471h43l-16 -81h-42l-14 -73h41l-16 -79h40l16 79h60l-16 -79h40l16 79h42l14 73h-41l15 81h41l15 73h-41l16 79h-40l-16 -79h-60l16 79h-40l-16 -79h-43zM132 471h60l-15 -81h-60z" />
    <glyph glyph-name="dollar" unicode="$" horiz-adv-x="363" 
d="M163 48v-90h57v90h-57zM163 673v-90h57v90h-57zM298 336l-141.999 78.998c-9.33301 4.66699 -15.333 9.66699 -18 15s-4 10.333 -4 15c0 16.667 7 30.5 21 41.5s28.333 16.5 43 16.5c14 0 25 -4.66699 33 -14l57 -74l63 90l-117 35c-20 5.33301 -36.667 8 -50 8
c-40 0 -74.667 -12.833 -104 -38.5s-44 -61.834 -44 -108.501c0 -19.333 4.16699 -37.833 12.5 -55.5s22.166 -31.5 41.499 -41.5l154 -79c3.33301 -1.33301 6.5 -4.33301 9.5 -9s4.5 -11 4.5 -19c0 -19.333 -7.33301 -35.666 -22 -48.999s-30.334 -20 -47.001 -20
c-10 0 -18.667 1.83301 -26 5.5s-12.333 6.83398 -15 9.50098l-60 78l-68 -90l125 -39c4 -1.33301 11 -3 21 -5s21.333 -3 34 -3c44.667 0 81.334 13.5 110.001 40.5s43 62.5 43 106.5c0 26 -5.33301 47.833 -16 65.5s-23.667 30.834 -39 39.501z" />
    <glyph glyph-name="percent" unicode="%" horiz-adv-x="479" 
d="M129 358c32 0 59.333 11.5 82 34.5s34 50.167 34 81.5c0 24 -7.66699 46.667 -23 68h131l-290 -409v-133h49v45l312 442v103h-295c-31.333 0 -58.5 -11.333 -81.5 -34s-34.5 -50 -34.5 -82c0 -31.333 11.5 -58.5 34.5 -81.5s50.167 -34.5 81.5 -34.5zM238 116
c0 -31.333 11.5 -58.5 34.5 -81.5s50.167 -34.5 81.5 -34.5c32 0 59.333 11.5 82 34.5s34 50.167 34 81.5s-11.333 58.5 -34 81.5s-50 34.5 -82 34.5c-31.333 0 -58.5 -11.5 -81.5 -34.5s-34.5 -50.167 -34.5 -81.5zM129 386c-15.333 0 -25.5 8.16699 -30.5 24.5
s-7.5 37.5 -7.5 63.5s2.5 47.333 7.5 64s15.167 25 30.5 25s25.666 -8.33301 30.999 -25s8 -38 8 -64c0 -25.333 -2.66699 -46.333 -8 -63s-15.666 -25 -30.999 -25zM354 28c-15.333 0 -25.5 8.16699 -30.5 24.5s-7.5 37.5 -7.5 63.5s2.5 47.167 7.5 63.5
s15.167 24.5 30.5 24.5s25.666 -8.33301 30.999 -25s8 -37.667 8 -63s-2.66699 -46.333 -8 -63s-15.666 -25 -30.999 -25z" />
    <glyph glyph-name="ampersand" unicode="&#x26;" horiz-adv-x="521" 
d="M191 447c0 30 8.99902 54.5 26.999 73.5s38 28.5 60 28.5c14.667 0 25 -1.33301 31 -4s14.667 -9.66699 26 -21l93 -93v131c-26 14.667 -52.167 24.834 -78.5 30.501s-55.166 8.5 -86.499 8.5c-24 0 -47.5 -2.33301 -70.5 -7s-44.333 -12.5 -64 -23.5
s-35.5 -26.5 -47.5 -46.5s-18 -44.667 -18 -74c0 -24.667 6.16699 -49 18.5 -73s32.166 -43.667 59.499 -59c-34.667 -12.667 -62.667 -33 -84 -61s-32 -60.667 -32 -98c0 -28 7.83301 -52.833 23.5 -74.5s36 -39.667 61 -54s51.5 -25 79.5 -32s53.667 -10.5 77 -10.5
c46.667 0 82.334 4.16699 107.001 12.5s51.667 21.833 81 40.5l4 3v220l59 59h-183v-241c-10.667 -12.667 -21 -21.834 -31 -27.501s-22.333 -8.5 -37 -8.5c-34.667 0 -61.334 12.167 -80.001 36.5s-28 54.5 -28 90.5c0 35.333 13.167 65.333 39.5 90s58.833 37 97.5 37v32
c-17.333 1.33301 -32.666 6 -45.999 14s-24.333 18 -33 30s-15 24.333 -19 37s-6 24 -6 34z" />
    <glyph glyph-name="quotesingle" unicode="'" horiz-adv-x="228" 
d="M175 553c1.33301 4 2.00195 8.66699 2.00195 14c0 16 -6.33301 30.167 -19 42.5s-27.334 18.5 -44.001 18.5s-31.334 -6.33301 -44.001 -19s-19 -27 -19 -43c0 -4.66699 0.666992 -9 2 -13l61 -183z" />
    <glyph glyph-name="parenleft" unicode="(" horiz-adv-x="290" 
d="M263 674c-73.333 -45.333 -128.5 -99.167 -165.5 -161.5s-55.5 -134.833 -55.5 -217.5s18.5 -155.167 55.5 -217.5s92.167 -116.166 165.5 -161.499l19 29c-23.333 30 -42.5 57.667 -57.5 83s-27.167 51.333 -36.5 78s-16.166 55.167 -20.499 85.5
s-6.5 64.833 -6.5 103.5s2.16699 73.167 6.5 103.5s11.166 58.666 20.499 84.999s21.5 52.333 36.5 78s34.167 53.5 57.5 83.5z" />
    <glyph glyph-name="parenright" unicode=")" horiz-adv-x="290" 
d="M248 295c0 82.667 -18.333 155.168 -55 217.501s-91.667 116.166 -165 161.499l-20 -29c23.333 -30 42.5 -57.667 57.5 -83s27.167 -51.333 36.5 -78s16.166 -55.167 20.499 -85.5s6.5 -64.833 6.5 -103.5s-2.16699 -73.167 -6.5 -103.5s-11.166 -58.666 -20.499 -84.999
s-21.5 -52.333 -36.5 -78s-34.167 -53.5 -57.5 -83.5l20 -29c73.333 45.333 128.333 99.166 165 161.499s55 134.833 55 217.5z" />
    <glyph glyph-name="asterisk" unicode="*" horiz-adv-x="338" 
d="M33 519l85 -28l-85 -28l33 -72l79 56l-7 -89h61l-6 89l79 -56l32 72l-86 28l86 28l-32 72l-79 -56l6 88h-61l7 -88l-79 56z" />
    <glyph glyph-name="plus" unicode="+" horiz-adv-x="365" 
d="M46 200h102v-102h69v102h102v69h-102v102h-69v-102h-102v-69z" />
    <glyph glyph-name="comma" unicode="," horiz-adv-x="271" 
d="M176 27c5.33301 8 8.00098 17.001 8.00098 27.001c0 16 -5.83301 30.5 -17.5 43.5s-26.834 19.5 -45.501 19.5c-16.667 0 -31.167 -6.33301 -43.5 -19s-18.5 -27.334 -18.5 -44.001v-194z" />
    <glyph glyph-name="hyphen" unicode="-" horiz-adv-x="332" 
d="M46 200h240v69h-240v-69z" />
    <glyph glyph-name="period" unicode="." horiz-adv-x="271" 
d="M121 -8c18.667 0 34.5 6.5 47.5 19.5s19.5 28.5 19.5 46.5c0 18.667 -6.5 34.5 -19.5 47.5s-28.833 19.5 -47.5 19.5s-34.5 -6.5 -47.5 -19.5s-19.5 -28.833 -19.5 -47.5c0 -18 6.5 -33.5 19.5 -46.5s28.833 -19.5 47.5 -19.5z" />
    <glyph glyph-name="slash" unicode="/" horiz-adv-x="358" 
d="M16 0h95l252 632h-95z" />
    <glyph glyph-name="zero" unicode="0" horiz-adv-x="515" 
d="M29 212c0 -30.667 5.83203 -59.999 17.499 -87.999s28.167 -52.667 49.5 -74s46 -37.833 74 -49.5s57.333 -17.5 88 -17.5s59.834 5.83301 87.501 17.5s52.167 28.167 73.5 49.5s37.833 46 49.5 74s17.5 57.333 17.5 88s-5.83301 60 -17.5 88s-28 52.5 -49 73.5
s-45.5 37.333 -73.5 49s-57.333 17.5 -88 17.5s-60 -5.83301 -88 -17.5s-52.667 -28.167 -74 -49.5s-37.833 -45.833 -49.5 -73.5s-17.5 -56.834 -17.5 -87.501zM257.999 32.001c-18 0 -32.667 5.33301 -44 16s-20 24.834 -26 42.501s-10 36.5 -12 56.5s-3 41.667 -3 65
s1 45.166 3 65.499s6 39.166 12 56.499s14.667 31.333 26 42s26 16 44 16s32.667 -5.33301 44 -16s19.833 -24.667 25.5 -42s9.5 -36.166 11.5 -56.499s3 -42.166 3 -65.499s-1 -45 -3 -65s-5.83301 -38.833 -11.5 -56.5s-14.167 -31.834 -25.5 -42.501s-26 -16 -44 -16z
" />
    <glyph glyph-name="one" unicode="1" horiz-adv-x="317" 
d="M279 423h-241l59 -59v-305l-59 -59h241l-59 59v305z" />
    <glyph glyph-name="two" unicode="2" horiz-adv-x="417" 
d="M53 362l30 -29l48 30c10.667 6.66699 21.667 10 33 10c23.333 0 42 -8.33301 56 -25s21 -34 21 -52c0 -12.667 -2.16699 -24.667 -6.5 -36s-12.5 -22.333 -24.5 -33l-188 -168v-59h352v133l-46 -47h-201l183 136c12.667 8.66699 24.334 21.167 35.001 37.5
s16 36.5 16 60.5c0 32 -11.833 60.5 -35.5 85.5s-57.834 37.5 -102.501 37.5c-37.333 0 -69 -9.66699 -95 -29z" />
    <glyph glyph-name="three" unicode="3" horiz-adv-x="383" 
d="M76 138c17.333 0 34.334 -3.33203 51.001 -9.99902s31.5 -16 44.5 -28s23.167 -25.833 30.5 -41.5s11 -32.5 11 -50.5c0 -20 -4.33301 -38.333 -13 -55s-20.5 -31 -35.5 -43s-32.167 -21.167 -51.5 -27.5s-39 -9.5 -59 -9.5h-41v-40h41
c34.667 0 68.834 3.16699 102.501 9.5s65 16.5 94 30.5s52 32.333 69 55s25.5 49.334 25.5 80.001c0 36.667 -12.667 68 -38 94s-57 43.333 -95 52c34.667 10.667 62.334 29.667 83.001 57s31 57.666 31 90.999c0 40 -16.333 72.667 -49 98s-74 38 -124 38
c-46 0 -86.333 -10.667 -121 -32l-24 -15l29 -29c4 2.66699 11 6 21 10s22.333 6 37 6c32 0 57.5 -9.83301 76.5 -29.5s28.5 -40.834 28.5 -63.501c0 -12 -2.83301 -24.833 -8.5 -38.5s-13.834 -26.5 -24.501 -38.5s-23.834 -21.667 -39.501 -29s-32.834 -11 -51.501 -11
v-30z" />
    <glyph glyph-name="four" unicode="4" horiz-adv-x="442" 
d="M234 -167h124v167h62v61h-62v367h-60l-285 -395v-33h221v-167zM234 61h-124l124 174v-174z" />
    <glyph glyph-name="five" unicode="5" horiz-adv-x="404" 
d="M180 186l-81 0.00195312v131h216l45 106h-313v-315h94c29.333 0 53.666 -6.5 72.999 -19.5s29 -31.5 29 -55.5c0 -16.667 -5.33301 -34.5 -16 -53.5s-24.834 -36.667 -42.501 -53s-37.167 -29.333 -58.5 -39s-42.333 -14.5 -63 -14.5h-25v-40h25
c29.333 0 62.333 5.5 99 16.5s71.5 26.5 104.5 46.5s59.833 43.167 80.5 69.5s31 53.833 31 82.5c0 23.333 -5.83301 43.666 -17.5 60.999s-27.167 31.666 -46.5 42.999s-40.666 19.833 -63.999 25.5s-46.666 8.5 -69.999 8.5z" />
    <glyph glyph-name="six" unicode="6" horiz-adv-x="488" 
d="M271 369c-24.667 0 -46.001 -5.49902 -64.001 -16.499s-32.667 -25.5 -44 -43.5c8.66699 53.333 20.834 97.166 36.501 131.499s32.667 60.333 51 78s35.166 29.667 50.499 36s31.666 11.5 48.999 15.5c7.33301 1.33301 11.666 2.33301 12.999 3l-10 30
c-8.66699 0.666992 -17 1 -25 1c-43.333 0 -83.666 -11 -120.999 -33s-69.166 -51.667 -95.499 -89s-46.666 -78.5 -60.999 -123.5s-21.5 -90.167 -21.5 -135.5c0 -69.333 20 -126 60 -170s93.667 -66 161 -66c22 0 45.333 4.66699 70 14s47.5 22.666 68.5 39.999
s37.833 38 50.5 62s19 49.667 19 77c0 28.667 -5.33301 54.667 -16 78s-25.167 43.333 -43.5 60s-38.5 29.334 -60.5 38.001s-44.333 13 -67 13zM326.999 167.001c0 -36.667 -6.83398 -67.667 -20.501 -93s-32.5 -38 -56.5 -38c-64.667 0 -97 58.333 -97 175
c0 11.333 0.333008 20 1 26s1.33398 9.66699 2.00098 11c4.66699 17.333 16.667 32.333 36 45s38 19 56 19c18.667 0 33.5 -4.83301 44.5 -14.5s19 -22 24 -37s8 -29.667 9 -44s1.5 -30.833 1.5 -49.5z" />
    <glyph glyph-name="seven" unicode="7" horiz-adv-x="400" 
d="M26 253l59 60h209l-208 -480h122v57l185 529h-367v-166z" />
    <glyph glyph-name="eight" unicode="8" horiz-adv-x="496" 
d="M361 317c25.333 12.667 45.666 30.667 60.999 54s23 49 23 77c0 22 -5.33301 42.5 -16 61.5s-25.5 35.5 -44.5 49.5s-40.333 24.833 -64 32.5s-47.834 11.5 -72.501 11.5s-48.834 -3.83301 -72.501 -11.5s-44.667 -18.5 -63 -32.5s-33 -30.5 -44 -49.5
s-16.5 -39.5 -16.5 -61.5c0 -27.333 7.5 -52.833 22.5 -76.5s35.167 -42.5 60.5 -56.5c-33.333 -14 -58.666 -34.5 -75.999 -61.5s-26 -58.833 -26 -95.5c0 -26 6 -49.667 18 -71s28.333 -39.5 49 -54.5s43.834 -26.333 69.501 -34s51.834 -11.5 78.501 -11.5
s53 3.83301 79 11.5s49.333 19 70 34s37 33.167 49 54.5s18 45 18 71c0 36.667 -8.83301 68.667 -26.5 96s-43.167 48.333 -76.5 63zM160 158c0 34 7.66699 64.167 23 90.5s37 39.5 65 39.5s49.833 -13.167 65.5 -39.5s23.5 -56.5 23.5 -90.5c0 -32 -8 -60.333 -24 -85
s-37.667 -37 -65 -37c-26.667 0 -48 12.167 -64 36.5s-24 52.833 -24 85.5zM316 437c0 -25.333 -6 -48.5 -18 -69.5s-28.667 -31.5 -50 -31.5c-20.667 0 -37 10.5 -49 31.5s-18 44.167 -18 69.5c0 33.333 5.33301 61.166 16 83.499s27.667 33.5 51 33.5
c24 0 41.333 -11.167 52 -33.5s16 -50.166 16 -83.499z" />
    <glyph glyph-name="nine" unicode="9" horiz-adv-x="488" 
d="M217 58c24.667 0 45.665 5.50098 62.998 16.501s32.333 25.5 45 43.5c-8 -53.333 -20 -97.166 -36 -131.499s-33.333 -60.333 -52 -78s-35.667 -29.667 -51 -36s-31.666 -11.166 -48.999 -14.499c-6 -1.33301 -10 -2.33301 -12 -3l10 -31c8.66699 -0.666992 17 -1 25 -1
c44 0 84.333 11 121 33s68.334 51.667 95.001 89s47 78.666 61 123.999s21 90.333 21 135c0 70 -19.833 126.833 -59.5 170.5s-93.167 65.5 -160.5 65.5c-22.667 0 -46.167 -4.66699 -70.5 -14s-47.166 -22.666 -68.499 -39.999s-38.333 -37.833 -51 -61.5
s-19 -49.167 -19 -76.5c0 -28.667 5.33301 -54.834 16 -78.501s25.167 -43.834 43.5 -60.501s38.666 -29.334 60.999 -38.001s44.833 -13 67.5 -13zM160.998 261.001c0 36.667 6.83398 67.665 20.501 92.998s32.5 38 56.5 38c64.667 0 97 -58.333 97 -175
c0 -11.333 -0.333008 -20.166 -1 -26.499s-1.33398 -10.166 -2.00098 -11.499c-4.66699 -17.333 -16.667 -32.166 -36 -44.499s-38.333 -18.5 -57 -18.5c-18 0 -32.5 4.66699 -43.5 14s-19 21.5 -24 36.5s-8 29.667 -9 44s-1.5 31.166 -1.5 50.499z" />
    <glyph glyph-name="colon" unicode=":" horiz-adv-x="271" 
d="M121 -8c18.667 0 34.5 6.5 47.5 19.5s19.5 28.5 19.5 46.5c0 18.667 -6.5 34.5 -19.5 47.5s-28.833 19.5 -47.5 19.5s-34.5 -6.5 -47.5 -19.5s-19.5 -28.833 -19.5 -47.5c0 -18 6.5 -33.5 19.5 -46.5s28.833 -19.5 47.5 -19.5zM121 238c18.667 0 34.5 6.5 47.5 19.5
s19.5 28.5 19.5 46.5c0 18.667 -6.5 34.5 -19.5 47.5s-28.833 19.5 -47.5 19.5s-34.5 -6.5 -47.5 -19.5s-19.5 -28.833 -19.5 -47.5c0 -18 6.5 -33.5 19.5 -46.5s28.833 -19.5 47.5 -19.5z" />
    <glyph glyph-name="semicolon" unicode=";" horiz-adv-x="271" 
d="M176 27c5.33301 8 8.00098 17.001 8.00098 27.001c0 16 -5.83301 30.5 -17.5 43.5s-26.834 19.5 -45.501 19.5c-16.667 0 -31.167 -6.33301 -43.5 -19s-18.5 -27.334 -18.5 -44.001v-194zM121.001 238.001c18.667 0 34.5 6.5 47.5 19.5s19.5 28.5 19.5 46.5
c0 18.667 -6.5 34.5 -19.5 47.5s-28.833 19.5 -47.5 19.5s-34.5 -6.5 -47.5 -19.5s-19.5 -28.833 -19.5 -47.5c0 -18 6.5 -33.5 19.5 -46.5s28.833 -19.5 47.5 -19.5z" />
    <glyph glyph-name="less" unicode="&#x3c;" horiz-adv-x="415" 
d="M237 538l116.001 -167.001v194c0 16.667 -6 31.334 -18 44.001s-26.333 19 -43 19c-18.667 0 -33.834 -6.5 -45.501 -19.5s-17.5 -27.167 -17.5 -42.5c0 -10.667 2.66699 -20 8 -28zM58.001 537.999l116.001 -167.001v194c0 16.667 -6 31.334 -18 44.001
s-26.333 19 -43 19c-18.667 0 -33.834 -6.5 -45.501 -19.5s-17.5 -27.167 -17.5 -42.5c0 -10.667 2.66699 -20 8 -28z" />
    <glyph glyph-name="equal" unicode="=" horiz-adv-x="332" 
d="M46 269h240v69h-240v-69zM46 131h240v69h-240v-69z" />
    <glyph glyph-name="greater" unicode="&#x3e;" horiz-adv-x="415" 
d="M180 538c5.33301 8 8.00098 17.334 8.00098 28.001c0 15.333 -5.83301 29.5 -17.5 42.5s-26.834 19.5 -45.501 19.5c-16.667 0 -31.167 -6.33301 -43.5 -19s-18.5 -27.334 -18.5 -44.001v-194zM359.001 538.001c5.33301 8 8.00098 17.334 8.00098 28.001
c0 15.333 -5.83301 29.5 -17.5 42.5s-26.834 19.5 -45.501 19.5c-16.667 0 -31 -6.33301 -43 -19s-18 -27.334 -18 -44.001v-194z" />
    <glyph glyph-name="question" unicode="?" horiz-adv-x="450" 
d="M67 493l69.0029 74c8.66699 4 16 6.83301 22 8.5s13.333 2.5 22 2.5c24 0 47.667 -9.33301 71 -28s35 -44 35 -76c0 -12.667 -2.83301 -26 -8.5 -40s-12.834 -26 -21.501 -36l-97 -114v-121h49v39l182 191c7.33301 7.33301 13.833 16.833 19.5 28.5
s8.5 26.834 8.5 45.501c0 16.667 -3.33301 34.5 -10 53.5s-17.334 37.5 -32.001 55.5s-34.5 32.667 -59.5 44s-54.833 17 -89.5 17c-15.333 0 -28.333 -0.5 -39 -1.5s-25.334 -2.83301 -44.001 -5.5c-5.33301 -0.666992 -9 -1.33398 -11 -2.00098l-130 -22zM250.003 54
c0 17.333 -6 32.166 -18 44.499s-26.667 18.5 -44 18.5s-32.166 -6.16699 -44.499 -18.5s-18.5 -27.166 -18.5 -44.499s6.16699 -32 18.5 -44s27.166 -18 44.499 -18s32 6 44 18s18 26.667 18 44z" />
    <glyph glyph-name="at" unicode="@" horiz-adv-x="625" 
d="M480 250c0 -26.667 -4.33496 -51.5029 -13.002 -74.5029s-20.167 -43.5 -34.5 -61.5s-30 -33.667 -47 -47s-34.167 -24.666 -51.5 -33.999l81 302l-106 -55c-6 15.333 -16.167 28.666 -30.5 39.999s-31.166 17 -50.499 17c-20.667 0 -41.667 -7 -63 -21
s-40.833 -32.333 -58.5 -55s-31.834 -47.167 -42.501 -73.5s-16 -50.833 -16 -73.5c0 -41.333 8.83301 -73 26.5 -95s38.834 -33 63.501 -33c19.333 0 39 6 59 18s36.667 26 50 42l73 -61c27.333 4.66699 56.166 15.334 86.499 32.001s58.666 37.834 84.999 63.501
s47.666 54.834 63.999 87.501s24.5 66.334 24.5 101.001c0 21.333 -3.83301 43.833 -11.5 67.5s-20.667 46.5 -39 68.5s-43.166 40 -74.499 54s-69.666 21 -114.999 21c-43.333 0 -85.166 -11 -125.499 -33s-76.166 -49 -107.499 -81l9 -20
c28.667 24.667 58.667 43.667 90 57s63 20 95 20c20 0 40.5 -3.66699 61.5 -11s40.5 -18.333 58.5 -33s32.333 -32.834 43 -54.501s16 -46.5 16 -74.5zM254.998 91.9971c-7.33301 -16 -18.1689 -29 -32.502 -39s-29.166 -15 -44.499 -15c-10 0 -17.667 3.5 -23 10.5
s-8 15.167 -8 24.5c0 14.667 2.33301 34 7 58s11.334 47.667 20.001 71s19 42.833 31 58.5s25.333 23.5 40 23.5c32 0 48 -16.333 48 -49z" />
    <glyph glyph-name="A" unicode="A" horiz-adv-x="533" 
d="M175 0l-62 63l35 100h177l33 -100l-62 -63h254l-64 64l-183 526h-76l-188 -526l-64 -64h200zM169 223l69 195l65 -195h-134z" />
    <glyph glyph-name="B" unicode="B" horiz-adv-x="512" 
d="M17 0l250 -0.000976562c27.333 0 53.833 2.66699 79.5 8s49.167 14 70.5 26s38.333 28 51 48s19 43.667 19 71c0 17.333 -3.66699 34.5 -11 51.5s-17.5 32.5 -30.5 46.5s-28 25.833 -45 35.5s-34.833 15.834 -53.5 18.501c30 8.66699 56 25.667 78 51s33 49.333 33 72
c0 28.667 -6 53.5 -18 74.5s-28.167 38 -48.5 51s-42.833 22.333 -67.5 28s-50.667 8.5 -78 8.5h-229l63 -63v-464zM203 528.999h43c26 0 46.5 -9 61.5 -27s22.5 -42.667 22.5 -74c0 -30.667 -7.5 -55 -22.5 -73s-35.5 -27 -61.5 -27h-43v201zM267 60.999l-64 0.000976562
v206h64c27.333 0 49.5 -11.333 66.5 -34s25.5 -49.334 25.5 -80.001s-8.5 -53.667 -25.5 -69s-39.167 -23 -66.5 -23z" />
    <glyph glyph-name="C" unicode="C" horiz-adv-x="486" 
d="M295 603c-37.333 0 -72.5 -8.33301 -105.5 -25s-61.833 -39.667 -86.5 -69s-43.834 -62.5 -57.501 -99.5s-20.5 -75.167 -20.5 -114.5s6.83301 -77.5 20.5 -114.5s32.834 -70.167 57.501 -99.5s53.5 -52.333 86.5 -69s68.167 -25 105.5 -25c36 0 65.833 2.16699 89.5 6.5
s49.167 13.833 76.5 28.5v148l-93 -93c-19.333 -19.333 -43.666 -29 -72.999 -29c-25.333 0 -46.5 7.33301 -63.5 22s-30 34 -39 58s-15.167 50 -18.5 78s-5 57.667 -5 89c0 33.333 1.5 64 4.5 92s8.83301 54 17.5 78s21.5 43.5 38.5 58.5s38.833 22.5 65.5 22.5
c29.333 0 53.666 -9.33301 72.999 -28l93 -94v144c-28 14.667 -53.167 24.167 -75.5 28.5s-52.5 6.5 -90.5 6.5z" />
    <glyph glyph-name="D" unicode="D" horiz-adv-x="583" 
d="M17 0l271 -0.00585938c38 0 73.667 7.83301 107 23.5s62.166 37.334 86.499 65.001s43.166 59.334 56.499 95.001s20 72.834 20 111.501s-6.66699 75.834 -20 111.501s-32.166 67.334 -56.499 95.001s-53.166 49.334 -86.499 65.001s-69 23.5 -107 23.5h-271l63 -63v-464
zM203 60.9941v468.002h64c25.333 0 47.333 -6.66699 66 -20s34 -31.333 46 -54s20.667 -47.834 26 -75.501s8 -55.834 8 -84.501s-2.66699 -56.667 -8 -84s-14 -52.5 -26 -75.5s-27.333 -41.167 -46 -54.5s-40.667 -20 -66 -20h-64z" />
    <glyph glyph-name="E" unicode="E" 
d="M433 0v141l-80 -80h-150v222h104l63 -63v188l-63 -64h-104v185h150l80 -80v141h-416l63 -63v-464l-63 -63h416z" />
    <glyph glyph-name="F" unicode="F" horiz-adv-x="438" 
d="M17 0h250l-64 63v220h104l63 -63v188l-63 -64h-104v185h150l80 -80v141h-416l63 -63v-464z" />
    <glyph glyph-name="G" unicode="G" horiz-adv-x="583" 
d="M333 -13c40.667 0 74.499 2.83301 101.499 8.5s56.5 17.167 88.5 34.5v230l60 59h-242l59 -59v-185c-1.33301 -0.666992 -3.33301 -2.66699 -6 -6c-8 -8.66699 -16.333 -15.667 -25 -21s-20.667 -8 -36 -8c-30.667 0 -56.834 7.33301 -78.501 22s-38.667 34.167 -51 58.5
s-21.166 51.333 -26.499 81s-8 60.834 -8 93.501c0 30 3.33301 60 10 90s16.667 57.167 30 81.5s30.5 43.666 51.5 57.999s45.167 21.5 72.5 21.5c15.333 0 28.5 -2.16699 39.5 -6.5s21.833 -11.5 32.5 -21.5l93 -94v144c-28.667 14 -54.5 23.333 -77.5 28
s-52.167 7 -87.5 7c-39.333 0 -77.666 -8.16699 -114.999 -24.5s-70.5 -39 -99.5 -68s-51.833 -62.167 -68.5 -99.5s-25 -76 -25 -116s8.33301 -78.667 25 -116s39.667 -70.5 69 -99.5s62.5 -51.667 99.5 -68s75.167 -24.5 114.5 -24.5z" />
    <glyph glyph-name="H" unicode="H" horiz-adv-x="596" 
d="M393 288v-225l-64 -63h250l-63 63v464l63 63h-250l64 -63v-179h-190v179l64 63h-250l63 -63v-464l-63 -63h250l-64 63v225h190z" />
    <glyph glyph-name="I" unicode="I" horiz-adv-x="300" 
d="M25 590l63 -63v-464l-63 -63h250l-63 63v464l63 63h-250z" />
    <glyph glyph-name="J" unicode="J" horiz-adv-x="313" 
d="M42 590l63 -63.002v-585c0 -30 -15 -50 -45 -60l-73 72l-89 -121h167c23.333 0 45 4.83301 65 14.5s37.333 22.834 52 39.501s26 35.834 34 57.501s12 44.167 12 67.5v515l64 63h-250z" />
    <glyph glyph-name="K" unicode="K" horiz-adv-x="558" 
d="M203 63v244l177 -246v-61h197l-260 357l233 233h-196l58 -57l-209 -209v203l64 63h-250l63 -63v-464l-63 -63h250z" />
    <glyph glyph-name="L" unicode="L" horiz-adv-x="429" 
d="M344 61h-141v466l64 63h-250l63 -63v-464l-63 -63h407v141z" />
    <glyph glyph-name="M" unicode="M" horiz-adv-x="704" 
d="M213 0l-64 63v395l176 -315l176 315v-395l-63 -63h250l-64 63v464l64 63h-185l-145 -256l-144 256h-197l63 -63v-464l-63 -63h196z" />
    <glyph glyph-name="N" unicode="N" horiz-adv-x="563" 
d="M149 63v368l346 -500v596l63 63h-195l63 -63v-289l-245 352h-164l63 -63v-464l-63 -63h196z" />
    <glyph glyph-name="O" unicode="O" horiz-adv-x="590" 
d="M25 295c0 -40 6.49902 -78.833 19.499 -116.5s31.5 -71.167 55.5 -100.5s52.667 -52.5 86 -69.5s69.666 -25.5 108.999 -25.5s75.666 8.5 108.999 25.5s62 40.167 86 69.5s42.5 62.833 55.5 100.5s19.5 76.5 19.5 116.5s-6.33301 78.833 -19 116.5
s-31.167 71.167 -55.5 100.5s-53.166 52.5 -86.499 69.5s-69.666 25.5 -108.999 25.5s-75.666 -8.5 -108.999 -25.5s-62 -40.167 -86 -69.5s-42.5 -62.833 -55.5 -100.5s-19.5 -76.5 -19.5 -116.5zM294.999 44c-25.333 0 -46.334 7.49902 -63.001 22.499
s-29.5 34.667 -38.5 59s-15.333 50.833 -19 79.5s-5.5 58.667 -5.5 90c0 32 1.83301 62.333 5.5 91s9.83398 55 18.501 79s21.5 43.5 38.5 58.5s38.167 22.5 63.5 22.5s46.5 -7.5 63.5 -22.5s30 -34.667 39 -59s15.167 -50.666 18.5 -78.999s5 -58.5 5 -90.5
c0 -31.333 -1.66699 -61.5 -5 -90.5s-9.5 -55.5 -18.5 -79.5s-22 -43.5 -39 -58.5s-38.167 -22.5 -63.5 -22.5z" />
    <glyph glyph-name="P" unicode="P" horiz-adv-x="521" 
d="M17 0h249.999l-64 63v179h64c29.333 0 58.333 3.66699 87 11s54.667 18.333 78 33s41.833 33 55.5 55s20.5 47 20.5 75s-6.83301 53 -20.5 75s-32.167 40.333 -55.5 55s-49.166 25.667 -77.499 33s-57.5 11 -87.5 11h-250l63 -63v-464zM266.999 303h-64v226h64
c29.333 0 54.166 -11.167 74.499 -33.5s30.5 -48.833 30.5 -79.5c0 -30 -10.167 -56.333 -30.5 -79s-45.166 -34 -74.499 -34z" />
    <glyph glyph-name="Q" unicode="Q" horiz-adv-x="590" 
d="M570 40l-120.002 -0.000976562c38.667 32.667 67.5 72 86.5 118s28.5 91.667 28.5 137c0 39.333 -6.5 77.833 -19.5 115.5s-31.5 71.334 -55.5 101.001s-52.667 53 -86 70s-69.666 25.5 -108.999 25.5s-75.666 -8.5 -108.999 -25.5s-62 -40.167 -86 -69.5
s-42.5 -62.833 -55.5 -100.5s-19.5 -76.5 -19.5 -116.5s6.5 -78.833 19.5 -116.5s31.5 -71.167 55.5 -100.5s52.667 -52.5 86 -69.5s69.333 -25.5 108 -25.5l173 -46zM294.998 43.999c-25.333 0 -46.334 7.49902 -63.001 22.499s-29.5 34.667 -38.5 59
s-15.333 50.833 -19 79.5s-5.5 58.667 -5.5 90c0 32 1.83301 62.333 5.5 91s9.83398 55 18.501 79s21.5 43.5 38.5 58.5s38.167 22.5 63.5 22.5s46.5 -7.5 63.5 -22.5s30 -34.667 39 -59s15.167 -50.666 18.5 -78.999s5 -58.5 5 -90.5c0 -31.333 -1.66699 -61.5 -5 -90.5
s-9.5 -55.5 -18.5 -79.5s-22 -43.5 -39 -58.5s-38.167 -22.5 -63.5 -22.5z" />
    <glyph glyph-name="R" unicode="R" horiz-adv-x="521" 
d="M487 63l-124 226c28 10 53.5 27.5 76.5 52.5s34.5 55.5 34.5 91.5c0 26 -6.5 49 -19.5 69s-30.667 36.5 -53 49.5s-46.833 22.667 -73.5 29s-54 9.5 -82 9.5h-229l63 -63v-464l-63 -63h250l-64 63v204h42l132 -267h173zM203 529h43c26 0 47.833 -9.5 65.5 -28.5
s26.5 -41.5 26.5 -67.5c0 -28 -8.83301 -52.5 -26.5 -73.5s-39.5 -31.5 -65.5 -31.5h-43v201z" />
    <glyph glyph-name="S" unicode="S" horiz-adv-x="421" 
d="M403 170c0 32.667 -7.33301 60.335 -22 83.002s-32.334 40.334 -53.001 53.001l-142 87c-18.667 12 -32.5 25.333 -41.5 40s-13.5 29 -13.5 43c0 16 7.16699 31.333 21.5 46s32.833 22 55.5 22c15.333 0 30.333 -4.66699 45 -14l69 -74l63 112l-129 22
c-8 1.33301 -17.333 2.5 -28 3.5s-19.667 1.5 -27 1.5c-30.667 0 -57.5 -4.5 -80.5 -13.5s-42 -21.167 -57 -36.5s-26 -32.5 -33 -51.5s-10.5 -38.833 -10.5 -59.5c0 -10 1.33301 -21 4 -33s7.33398 -25 14.001 -39s16.167 -27.833 28.5 -41.5s27.5 -25.834 45.5 -36.501
l141 -87c10 -6.66699 18.333 -15.334 25 -26.001s10 -24.334 10 -41.001c0 -29.333 -9.16699 -52 -27.5 -68s-38.833 -24 -61.5 -24c-20 0 -38 6 -54 18l-74 83l-63 -121l134 -22c17.333 -3.33301 38.333 -5 63 -5c34 0 63.833 5 89.5 15s46.5 23.5 62.5 40.5
s27.667 36 35 57s11 43.167 11 66.5z" />
    <glyph glyph-name="T" unicode="T" horiz-adv-x="473" 
d="M298 63v466h83l80 -80v141h-448v-141l80 80h82v-466l-63 -63h250z" />
    <glyph glyph-name="U" unicode="U" horiz-adv-x="558" 
d="M72 158c0 -26.667 5.83398 -50.834 17.501 -72.501s27.5 -40.167 47.5 -55.5s42.333 -27 67 -35s49.667 -12 75 -12c27.333 0 53.5 4.16699 78.5 12.5s47.167 20.333 66.5 36s34.666 34.334 45.999 56.001s17 45.167 17 70.5v369l63 63h-200l63 -63v-369
c0 -30 -10.667 -55.833 -32 -77.5s-47 -32.5 -77 -32.5s-55.667 10.833 -77 32.5s-32 47.5 -32 77.5v369l63 63h-250l64 -63v-369z" />
    <glyph glyph-name="V" unicode="V" horiz-adv-x="500" 
d="M238 590h-255l65 -64l166 -526h76l171 526l64 64h-200l63 -62l-109 -355l-104 355z" />
    <glyph glyph-name="W" unicode="W" horiz-adv-x="796" 
d="M290 0l112 343l108 -343h76l171 526l64 64h-200l62 -62l-108 -355l-104 355l62 62h-254l64 -63l23 -72l-87 -282l-104 355l63 62h-255l65 -64l166 -526h76z" />
    <glyph glyph-name="X" unicode="X" horiz-adv-x="542" 
d="M64 526l150.001 -253.001l-154 -209l-64 -64h204l-62 63l110 151c3.33301 -5.33301 7.66602 -12.666 12.999 -21.999l39.5 -66.5c21 -35 33.5 -56.167 37.5 -63.5v-62h208l-64 64l-154 259l150 203l64 64h-204l62 -62l-107 -146l-85 146v62h-208z" />
    <glyph glyph-name="Y" unicode="Y" horiz-adv-x="504" 
d="M48 526l149 -260v-203l-64 -63h250l-63 63v203l145 260l64 64h-196l63 -62l-104 -192l-104 192l62 62h-267z" />
    <glyph glyph-name="Z" unicode="Z" horiz-adv-x="436" 
d="M101 529h163l-250 -529h401v141l-80 -80h-163l250 529h-401v-141z" />
    <glyph glyph-name="bracketleft" unicode="[" horiz-adv-x="233" 
d="M217 -23h-67v636h67v40h-169v-716h169v40z" />
    <glyph glyph-name="backslash" unicode="\" horiz-adv-x="42" 
 />
    <glyph glyph-name="bracketright" unicode="]" horiz-adv-x="233" 
d="M83 613v-636h-66v-40h169v716h-169v-40h66z" />
    <glyph glyph-name="asciicircum" unicode="^" horiz-adv-x="0" 
 />
    <glyph glyph-name="underscore" unicode="_" horiz-adv-x="467" 
d="M-2 -61h469v61h-469v-61z" />
    <glyph glyph-name="grave" unicode="`" horiz-adv-x="438" 
d="M18 678l-1 -0.000976562c-6.66699 -5.33301 -10 -12.666 -10 -21.999c0 -8 2.33301 -15.667 7 -23s10.667 -12.333 18 -15h-1l172 -70l-128 127c-8.66699 8 -19 12 -31 12c-10 0 -18.667 -3 -26 -9z" />
    <glyph glyph-name="a" unicode="a" 
d="M168 359c16 16 33.999 23.999 53.999 23.999c18 0 31.333 -6.5 40 -19.5s13 -28.833 13 -47.5v-55h-63c-23.333 0 -46.333 -3.5 -69 -10.5s-42.834 -17.167 -60.501 -30.5s-31.667 -29.5 -42 -48.5s-15.5 -40.167 -15.5 -63.5c0 -16.667 3 -32.667 9 -48s14 -29 24 -41
s21.333 -21.5 34 -28.5s25.334 -10.5 38.001 -10.5c16.667 0 30.667 4 42 12l103 76v-68h183l-60 59v257c0 36.667 -16.667 65.834 -50 87.501s-73.333 32.5 -120 32.5c-30 0 -57.167 -2.5 -81.5 -7.5s-48.166 -15.5 -71.499 -31.5v-127zM232.999 212.999
l42.001 -0.00195312v-91l-73 -54c-6.66699 -3.33301 -12.334 -5 -17.001 -5c-10 0 -19.333 4.33301 -28 13s-13 19.334 -13 32.001c0 34.667 7.83301 60.834 23.5 78.501s37.5 26.5 65.5 26.5z" />
    <glyph glyph-name="b" unicode="b" horiz-adv-x="498" 
d="M176 57c16 -22 34.832 -40.001 56.499 -54.001s44.5 -21 68.5 -21c26 0 49.667 6.83301 71 20.5s39.5 31.834 54.5 54.501s26.5 47.5 34.5 74.5s12 53.833 12 80.5s-4 53.5 -12 80.5s-19.5 51.833 -34.5 74.5s-33.167 40.667 -54.5 54s-45 20 -71 20
c-24 0 -46.667 -6.5 -68 -19.5s-38.666 -29.167 -51.999 -48.5v260l-181 -57l58 -58v-536zM264.999 47.999c-20.667 0 -38.5 6.16797 -53.5 18.501s-25.167 29.166 -30.5 50.499v190c5.33301 20.667 15.5 37.167 30.5 49.5s32.833 18.5 53.5 18.5
c25.333 0 42.166 -12.833 50.499 -38.5s12.5 -67.167 12.5 -124.5s-4.16699 -99 -12.5 -125s-25.166 -39 -50.499 -39z" />
    <glyph glyph-name="c" unicode="c" horiz-adv-x="419" 
d="M239 383c16.667 0 29.335 -1.50098 38.002 -4.50098s18 -9.5 28 -19.5l89 -89v127c-25.333 16.667 -49.5 27.334 -72.5 32.001s-52.5 7 -88.5 7c-27.333 0 -53.5 -6 -78.5 -18s-47.333 -28.667 -67 -50s-35 -45.5 -46 -72.5s-16.5 -54.833 -16.5 -83.5
s5.66699 -56.5 17 -83.5s26.666 -51.333 45.999 -73s41.666 -38.5 66.999 -50.5s51.333 -18 78 -18c35.333 0 65 4.66699 89 14s48.667 25.333 74 48l-34 34c-13.333 -15.333 -28 -26 -44 -32s-32.333 -9 -49 -9c-36 0 -61.667 13.333 -77 40s-23 70 -23 130
c0 30.667 0.5 55.5 1.5 74.5s3.83301 35.5 8.5 49.5c9.33301 31.333 29.333 47 60 47z" />
    <glyph glyph-name="d" unicode="d" horiz-adv-x="499" 
d="M259 576l58 -58v-145c-13.333 19.333 -30.666 35.5 -51.999 48.5s-44 19.5 -68 19.5c-26 0 -49.667 -6.66699 -71 -20s-39.5 -31.333 -54.5 -54s-26.5 -47.5 -34.5 -74.5s-12 -53.833 -12 -80.5s4 -53.667 12 -81s19.5 -52.166 34.5 -74.499s33.167 -40.333 54.5 -54
s45 -20.5 71 -20.5c24 0 46.667 6.66699 68 20s38.666 29.666 51.999 48.999v-51h182l-59 59v574zM317 117c-4.66699 -21.333 -14.667 -38.167 -30 -50.5s-33.333 -18.5 -54 -18.5c-25.333 0 -42.333 13.167 -51 39.5s-13 67.833 -13 124.5s4.16699 98 12.5 124
s25.5 39 51.5 39c20.667 0 38.5 -6.16699 53.5 -18.5s25.167 -28.833 30.5 -49.5v-190z" />
    <glyph glyph-name="e" unicode="e" horiz-adv-x="465" 
d="M440 217c0 33.333 -5.3291 63.833 -15.9961 91.5s-25.5 51.334 -44.5 71.001s-41 34.667 -66 45s-51.833 15.5 -80.5 15.5c-29.333 0 -56.833 -6 -82.5 -18s-47.834 -28.833 -66.501 -50.5s-33.167 -46.334 -43.5 -74.001s-15.5 -56.167 -15.5 -85.5
s5.33301 -57.5 16 -84.5s25.667 -51.167 45 -72.5s41.666 -38 66.999 -50s52 -18 80 -18c50.667 0 90.667 7.5 120 22.5s54.666 35.167 75.999 60.5l-32 33l-1 -1c-12 -16.667 -26.833 -30.667 -44.5 -42s-43.5 -17 -77.5 -17c-46.667 0 -75.834 12.5 -87.501 37.5
s-17.5 70.5 -17.5 136.5h271zM169.004 269c0 33.333 5.16699 61.5 15.5 84.5s26.5 34.5 48.5 34.5c18.667 0 35.667 -9.5 51 -28.5s23 -37.833 23 -56.5c0 -12.667 -3.33301 -24 -10 -34h-128z" />
    <glyph glyph-name="f" unicode="f" horiz-adv-x="313" 
d="M307 419l-99.999 -0.00195312v95c0 14.667 4.16699 27.334 12.5 38.001s19.166 18.334 32.499 23.001l68 -68l85 116h-158c-23.333 0 -45 -4.83301 -65 -14.5s-37.5 -22.834 -52.5 -39.501s-26.5 -35.667 -34.5 -57s-12 -43.666 -12 -66.999v-27l-67 -68h67v-291l-59 -59
h242l-59 59v308h100v52z" />
    <glyph glyph-name="g" unicode="g" horiz-adv-x="425" 
d="M178 165c3.33301 0 7.66699 -0.336914 13 -1.00391c7.33301 -0.666992 13 -1 17 -1c20 0 41 2.83301 63 8.5s42.333 14 61 25s33.667 24.5 45 40.5s17 34 17 54c0 11.333 -1.33301 21 -4 29s-6.66699 17.333 -12 28l62 71h-232c-22 0 -44.167 -2.5 -66.5 -7.5
s-42.5 -12.833 -60.5 -23.5s-32.5 -24.167 -43.5 -40.5s-16.5 -35.166 -16.5 -56.499c0 -24 7.16699 -45.167 21.5 -63.5s32.166 -33.166 53.499 -44.499v-183h112c28.667 0 53.334 -4.66699 74.001 -14s31 -24.333 31 -45c0 -20 -10.333 -34.167 -31 -42.5
s-45.334 -12.5 -74.001 -12.5h-61l-64 64l-86 -117h211c25.333 0 50 2.66699 74 8s46.167 13.5 66.5 24.5s36.5 25.333 48.5 43s18 38.167 18 61.5c0 24 -6 44.833 -18 62.5s-28 32.334 -48 44.001s-42.167 20.334 -66.5 26.001s-49.166 8.5 -74.499 8.5h-30v54z
M208.001 374.996c19.333 0 34.666 -8.5 45.999 -25.5s17 -36.5 17 -58.5s-5.66699 -41.5 -17 -58.5s-26.666 -25.5 -45.999 -25.5s-34.833 8.5 -46.5 25.5s-17.5 36.5 -17.5 58.5s5.83301 41.5 17.5 58.5s27.167 25.5 46.5 25.5z" />
    <glyph glyph-name="h" unicode="h" horiz-adv-x="504" 
d="M250 0l-59.001 59v226l41 41c20.667 21.333 39.334 32 56.001 32c11.333 0 19.833 -4.16699 25.5 -12.5s8.5 -16.833 8.5 -25.5v-320h182l-59 59v278c0 24.667 -10.833 47.5 -32.5 68.5s-48.167 31.5 -79.5 31.5c-14 0 -30.333 -3.83301 -49 -11.5
s-37.667 -21.167 -57 -40.5l-36 -36v284l-181 -57l58 -58v-459l-60 -59h242z" />
    <glyph glyph-name="i" unicode="i" horiz-adv-x="271" 
d="M265 0l-59 59v372l-181 -62l58 -57v-253l-60 -59h242zM206 524c0 17.333 -6 32 -18 44s-26.667 18 -44 18c-16.667 0 -31 -6 -43 -18s-18 -26.667 -18 -44c0 -16.667 6 -31 18 -43s26.333 -18 43 -18c17.333 0 32 6 44 18s18 26.333 18 43z" />
    <glyph glyph-name="j" unicode="j" horiz-adv-x="275" 
d="M213 524c0 17.333 -6 32 -18 44s-26.333 18 -43 18c-17.333 0 -32 -6 -44 -18s-18 -26.667 -18 -44c0 -16.667 6.16699 -31 18.5 -43s26.833 -18 43.5 -18s31 6 43 18s18 26.333 18 43zM41 369l57 -57.001v-370c0 -14 -4 -26.333 -12 -37s-19 -18.334 -33 -23.001l-68 68
l-85 -117h158c23.333 0 45 4.83301 65 14.5s37.5 22.834 52.5 39.501s26.5 35.834 34.5 57.501s12 44.167 12 67.5v419z" />
    <glyph glyph-name="k" unicode="k" horiz-adv-x="521" 
d="M191 59v140l152 -151v-48h195l-233 233l191 190h-196l49 -49l-158 -158v417l-181 -61l58 -58v-455l-60 -59h242z" />
    <glyph glyph-name="l" unicode="l" horiz-adv-x="271" 
d="M263 0l-60 59v574l-180 -61l57 -58v-455l-59 -59h242z" />
    <glyph glyph-name="m" unicode="m" horiz-adv-x="717" 
d="M227 381l-35.999 -35.999v86l-181 -62l58 -57v-253l-60 -59h242l-59 59v222l41 41c17.333 17.333 31 26 41 26c8.66699 0 15.5 -2.66699 20.5 -8s7.5 -10.666 7.5 -15.999v-324h182l-59 59v222l41 41c17.333 17.333 31.333 26 42 26c8 0 14.5 -2.83301 19.5 -8.5
s7.5 -10.834 7.5 -15.501v-324h183l-59 59v261c0 13.333 -1.83301 26.666 -5.5 39.999s-9.16699 26 -16.5 38s-17.333 21.667 -30 29s-27.334 11 -44.001 11c-30 0 -64 -19 -102 -57l-37 -37c-2 23.333 -12.167 44.833 -30.5 64.5s-39.833 29.5 -64.5 29.5
c-29.333 0 -63 -19 -101 -57z" />
    <glyph glyph-name="n" unicode="n" horiz-adv-x="521" 
d="M227 385l-35.998 -36.001v82l-181 -62l58 -57v-253l-60 -59h242l-59 59v226l41 41c24 24.667 45.333 37 64 37c14 0 24.5 -4.5 31.5 -13.5s10.5 -18.833 10.5 -29.5v-320h183l-59 59v274c0 24.667 -11 48.834 -33 72.501s-51 35.5 -87 35.5
c-16.667 0 -34.834 -4.33301 -54.501 -13s-39.834 -23 -60.501 -43z" />
    <glyph glyph-name="o" unicode="o" horiz-adv-x="507" 
d="M25 212c0 -30.667 5.83301 -60 17.5 -88s28.167 -52.667 49.5 -74s45.833 -37.833 73.5 -49.5s56.834 -17.5 87.501 -17.5c31.333 0 60.833 5.83301 88.5 17.5s52.167 28.167 73.5 49.5s37.833 46 49.5 74s17.5 57.333 17.5 88s-5.83301 60 -17.5 88
s-28.167 52.5 -49.5 73.5s-45.833 37.333 -73.5 49s-57.167 17.5 -88.5 17.5c-30.667 0 -59.834 -5.83301 -87.501 -17.5s-52.167 -28 -73.5 -49s-37.833 -45.5 -49.5 -73.5s-17.5 -57.333 -17.5 -88zM253 32c-18 0 -32.667 5.33301 -44 16s-19.833 24.834 -25.5 42.501
s-9.5 36.5 -11.5 56.5s-3 41.667 -3 65s1 45 3 65s5.83301 38.833 11.5 56.5s14.167 31.834 25.5 42.501s26 16 44 16s32.667 -5.33301 44 -16s20 -24.834 26 -42.501s10 -36.5 12 -56.5s3 -41.667 3 -65s-1 -45 -3 -65s-6 -38.833 -12 -56.5s-14.667 -31.834 -26 -42.501
s-26 -16 -44 -16z" />
    <glyph glyph-name="p" unicode="p" horiz-adv-x="498" 
d="M181 52c13.333 -19.333 30.666 -35.6689 51.999 -49.002s44 -20 68 -20c26 0 49.667 6.83301 71 20.5s39.5 31.834 54.5 54.501s26.5 47.5 34.5 74.5s12 53.833 12 80.5s-4 53.5 -12 80.5s-19.5 51.833 -34.5 74.5s-33.167 40.667 -54.5 54s-45 20 -71 20
c-24 0 -46.667 -6.66699 -68 -20s-38.666 -29.666 -51.999 -48.999v58l-181 -62l58 -57v-420l-60 -59h242l-59 59v160zM181 307.997c5.33301 20.667 15.5 37.168 30.5 49.501s32.833 18.5 53.5 18.5c25.333 0 42.166 -12.833 50.499 -38.5s12.5 -67.167 12.5 -124.5
s-4.16699 -99 -12.5 -125s-25.166 -39 -50.499 -39c-20.667 0 -38.5 6.16699 -53.5 18.5s-25.167 29.166 -30.5 50.499v190z" />
    <glyph glyph-name="q" unicode="q" horiz-adv-x="492" 
d="M440 -108l0.00195312 549l-118 -74c-15.333 22 -33.833 39.833 -55.5 53.5s-44.834 20.5 -69.501 20.5c-26 0 -49.667 -6.66699 -71 -20s-39.5 -31.333 -54.5 -54s-26.5 -47.5 -34.5 -74.5s-12 -53.833 -12 -80.5s4 -53.667 12 -81s19.5 -52.166 34.5 -74.499
s33.167 -40.333 54.5 -54s45 -20.5 71 -20.5c24 0 46.667 6.66699 68 20s38.666 29.666 51.999 48.999v-159l-59 -59h241zM233.002 375c20.667 0 38.5 -6.16797 53.5 -18.501s25.167 -28.833 30.5 -49.5v-190c-4.66699 -21.333 -14.667 -38.166 -30 -50.499
s-33.333 -18.5 -54 -18.5c-25.333 0 -42.333 13.167 -51 39.5s-13 67.833 -13 124.5s4.16699 98 12.5 124s25.5 39 51.5 39z" />
    <glyph glyph-name="r" unicode="r" horiz-adv-x="383" 
d="M227 389l-36 -38.999v81l-181 -62l58 -57v-253l-60 -59h242l-59 59v214l80 88l103 -103v169c-6.66699 1.33301 -14.334 2.66602 -23.001 3.99902s-14.667 2 -18 2c-21.333 0 -41.666 -4.33301 -60.999 -13s-34.333 -19 -45 -31z" />
    <glyph glyph-name="s" unicode="s" horiz-adv-x="354" 
d="M287 232l-142.001 78.998c-9.33301 5.33301 -15.333 10.666 -18 15.999s-4 10 -4 14c0 16.667 7 30.334 21 41.001s28.667 16 44 16c14.667 0 25.334 -4.33301 32.001 -13l57 -74l63 90l-117 35c-17.333 4.66699 -34 7 -50 7c-40 0 -74.667 -12.667 -104 -38
s-44 -61.333 -44 -108c0 -19.333 4.16699 -37.833 12.5 -55.5s22.166 -31.5 41.499 -41.5l154 -79c4 -2.66699 7.5 -6 10.5 -10s4.5 -10 4.5 -18c0 -19.333 -7.5 -35.833 -22.5 -49.5s-30.833 -20.5 -47.5 -20.5c-10 0 -18.5 1.83301 -25.5 5.5
s-11.833 6.83398 -14.5 9.50098l-61 79l-68 -90l125 -40c4 -1.33301 11.167 -2.83301 21.5 -4.5s21.5 -2.5 33.5 -2.5c44.667 0 81.334 13.5 110.001 40.5s43 62.5 43 106.5c0 26 -5.33301 47.833 -16 65.5s-23.667 30.834 -39 39.501z" />
    <glyph glyph-name="t" unicode="t" horiz-adv-x="317" 
d="M288 83c-22 -28.667 -50.333 -43.001 -85 -43.001v327h117v52h-117v118l-199 -199h76v-247c0 -32 11.167 -58.167 33.5 -78.5s51.5 -30.5 87.5 -30.5c19.333 0 38.333 4.33301 57 13c12 5.33301 23 12.833 33 22.5s18.667 21.834 26 36.501z" />
    <glyph glyph-name="u" unicode="u" horiz-adv-x="494" 
d="M0 369l57.999 -56.999v-225c0 -23.333 10.167 -45.833 30.5 -67.5s46.833 -32.5 79.5 -32.5c16.667 0 33.834 3.66699 51.501 11s36.5 20.666 56.5 39.999l36 36v-74h182l-59 59v372l-181 -62l58 -57v-174l-41 -40c-20.667 -21.333 -39 -32 -55 -32
c-12 0 -20.833 4 -26.5 12s-8.5 16.333 -8.5 25v328z" />
    <glyph glyph-name="v" unicode="v" horiz-adv-x="463" 
d="M-8 415l59 -59l147 -356h75l147 356l59 59h-183l58 -58l-83 -223l-83 223l58 58h-254z" />
    <glyph glyph-name="w" unicode="w" horiz-adv-x="700" 
d="M263 415l58 -58l-67 -217l-66 217l58 58h-254l60 -60l129 -355h76l97 268l98 -268h76l129 356l60 59h-184l59 -58l-67 -217l-67 217l59 58h-254z" />
    <glyph glyph-name="x" unicode="x" 
d="M60 355l117 -163l-121 -132l-60 -60h192l-58 58l79 87l62 -87l-58 -58h254l-60 60l-120 168l116 127l60 60h-192l57 -57l-75 -83l-57 82l58 58h-254z" />
    <glyph glyph-name="y" unicode="y" 
d="M51 356l152 -355l-44 -109l-81 -59h205l-58 59l191 464l59 59h-183l58 -58l-82 -202l-89 202l59 58h-246z" />
    <glyph glyph-name="z" unicode="z" horiz-adv-x="382" 
d="M25 283l80 80h109l-196 -363h339v133l-80 -80h-109l195 362h-338v-132z" />
    <glyph glyph-name="braceleft" unicode="{" horiz-adv-x="325" 
d="M130 295l113 88.0068c0 7.33301 -0.333008 16.5 -1 27.5s-1 17.833 -1 20.5c0 29.333 1.16699 54.666 3.5 75.999s5.83301 40.166 10.5 56.499s11.334 31.5 20.001 45.5s19.667 28.667 33 44l-10 23c-63.333 -53.333 -107.5 -97.333 -132.5 -132
s-37.5 -73.334 -37.5 -116.001c0 -2 0.666992 -9.66699 2 -23c1.33301 -10.667 2 -17 2 -19l-114 -91l114 -91c0 -2 -0.666992 -8.33301 -2 -19c-1.33301 -13.333 -2 -21 -2 -23c0 -42.667 12.5 -81.334 37.5 -116.001s69.167 -78.667 132.5 -132l10 23
c-13.333 15.333 -24.333 30 -33 44s-15.334 29.167 -20.001 45.5s-8.16699 35.166 -10.5 56.499s-3.5 46.666 -3.5 75.999c0 2.66699 0.333008 9.66699 1 21s1 20.666 1 27.999z" />
    <glyph glyph-name="bar" unicode="|" horiz-adv-x="0" 
 />
    <glyph glyph-name="braceright" unicode="}" horiz-adv-x="325" 
d="M83 383l112 -88.0059l-112 -87c0.666992 -28.667 1 -45 1 -49c0 -29.333 -1 -54.666 -3 -75.999s-5.5 -40.166 -10.5 -56.499s-11.833 -31.5 -20.5 -45.5s-19.667 -28.667 -33 -44l11 -23c63.333 53.333 107.333 97.333 132 132s37 73.334 37 116.001
c0 2 -0.666992 9.66699 -2 23c-1.33301 10.667 -2 17 -2 19l115 91l-115 91c0 2 0.666992 8.33301 2 19c1.33301 13.333 2 21 2 23c0 42.667 -12.333 81.334 -37 116.001s-68.667 78.667 -132 132l-11 -23c13.333 -15.333 24.333 -30 33 -44s15.5 -29.167 20.5 -45.5
s8.5 -35.166 10.5 -56.499s3 -46.666 3 -75.999c0 -4 -0.333008 -20 -1 -48z" />
    <glyph glyph-name="asciitilde" unicode="~" horiz-adv-x="0" 
 />
    <glyph glyph-name="nbspace" unicode="&#xa0;" horiz-adv-x="250" 
 />
    <glyph glyph-name="exclamdown" unicode="&#xa1;" horiz-adv-x="271" 
d="M101 303l-29 -470h140l-29 470h-82zM79 403c0 -17.333 6.16895 -32.166 18.502 -44.499s27.166 -18.5 44.499 -18.5s32 6.16699 44 18.5s18 27.166 18 44.499s-6 32 -18 44s-26.667 18 -44 18c-16.667 0 -31.334 -6 -44.001 -18s-19 -26.667 -19 -44z" />
    <glyph glyph-name="cent" unicode="&#xa2;" horiz-adv-x="433" 
d="M226 48v-90h57v90h-57zM226 673v-90h57v90h-57zM248 490c16.667 0 29.335 -1.5 38.002 -4.5s18 -9.5 28 -19.5l89 -89v126c-25.333 17.333 -49.333 28.333 -72 33s-52.334 7 -89.001 7c-27.333 0 -53.5 -6 -78.5 -18s-47.333 -28.667 -67 -50s-35 -45.5 -46 -72.5
s-16.5 -55.167 -16.5 -84.5c0 -28.667 5.66699 -56.5 17 -83.5s26.833 -51.167 46.5 -72.5s42 -38 67 -50s50.833 -18 77.5 -18c35.333 0 65 4.5 89 13.5s48.667 25.167 74 48.5l-34 34c-14 -16 -28.833 -27 -44.5 -33s-31.834 -9 -48.501 -9c-36 0 -61.667 13.333 -77 40
s-23 70 -23 130c0 62 4 106.167 12 132.5s27.333 39.5 58 39.5z" />
    <glyph glyph-name="sterling" unicode="&#xa3;" horiz-adv-x="446" 
d="M295 336l-99.999 -0.00195312v145c0 14.667 4.16699 27.334 12.5 38.001s19.166 18.334 32.499 23.001l68 -69l85 117h-158c-23.333 0 -45 -4.83301 -65 -14.5s-37.333 -22.834 -52 -39.501s-26 -35.667 -34 -57s-12 -43.666 -12 -66.999v-78l-68 -67h68v-220l-47 -47
h412v141l-80 -80h-162v222h100v53z" />
    <glyph glyph-name="currency" unicode="&#xa4;" horiz-adv-x="408" 
d="M41 528l24.998 -28.9971l52 31c10 5.33301 21.667 8 35 8c32 0 57.5 -12.833 76.5 -38.5s28.5 -51.5 28.5 -77.5c0 -14 -2.66699 -27.333 -8 -40s-11.666 -24.334 -18.999 -35.001l-208 -288l-1 -1v-58h361v133l-47 -47h-220l216 257c12.667 15.333 23.5 31.5 32.5 48.5
s13.5 37.5 13.5 61.5c0 22.667 -5.33301 43.667 -16 63s-24.667 35.666 -42 48.999s-36.333 23.666 -57 30.999s-40.667 11 -60 11c-33.333 0 -62.666 -8.66699 -87.999 -26z" />
    <glyph glyph-name="yen" unicode="&#xa5;" horiz-adv-x="546" 
d="M38 313h149l25 -44h-174v-61h175v-145l-63 -63h250l-63 63v145h175v61h-173l24 44h149v60h-114l85 153l63 64h-196l63 -62l-105 -192l-104 192l63 62h-267l64 -64l88 -153h-114v-60z" />
    <glyph glyph-name="brokenbar" unicode="&#xa6;" horiz-adv-x="270" 
d="M106 292v-292h62v292h-62zM106 667v-292h62v292h-62z" />
    <glyph glyph-name="section" unicode="&#xa7;" horiz-adv-x="488" 
d="M271 369c-24.667 0 -46.001 -5.49902 -64.001 -16.499s-32.667 -25.5 -44 -43.5c8.66699 53.333 20.834 97.166 36.501 131.499s32.667 60.333 51 78s35.166 29.667 50.499 36s31.666 11.5 48.999 15.5c7.33301 1.33301 11.666 2.33301 12.999 3l-10 30
c-8.66699 0.666992 -17 1 -25 1c-43.333 0 -83.666 -11 -120.999 -33s-69.166 -51.667 -95.499 -89s-46.666 -78.5 -60.999 -123.5s-21.5 -90.167 -21.5 -135.5c0 -69.333 20 -126 60 -170s93.667 -66 161 -66c22 0 45.333 4.66699 70 14s47.5 22.666 68.5 39.999
s37.833 38 50.5 62s19 49.667 19 77c0 28.667 -5.33301 54.667 -16 78s-25.167 43.333 -43.5 60s-38.5 29.334 -60.5 38.001s-44.333 13 -67 13zM326.999 167.001c0 -36.667 -6.83398 -67.667 -20.501 -93s-32.5 -38 -56.5 -38c-64.667 0 -97 58.333 -97 175
c0 11.333 0.333008 20 1 26s1.33398 9.66699 2.00098 11c4.66699 17.333 16.667 32.333 36 45s38 19 56 19c18.667 0 33.5 -4.83301 44.5 -14.5s19 -22 24 -37s8 -29.667 9 -44s1.5 -30.833 1.5 -49.5z" />
    <glyph glyph-name="dieresis" unicode="&#xa8;" horiz-adv-x="302" 
d="M280 626c0 15.333 -5.5 28.5 -16.5 39.5s-24.167 16.5 -39.5 16.5s-28.5 -5.5 -39.5 -16.5s-16.5 -24.167 -16.5 -39.5s5.5 -28.5 16.5 -39.5s24.167 -16.5 39.5 -16.5s28.5 5.5 39.5 16.5s16.5 24.167 16.5 39.5zM125 627c0 15.333 -5.5 28.5 -16.5 39.5
s-24.167 16.5 -39.5 16.5s-28.5 -5.5 -39.5 -16.5s-16.5 -24.167 -16.5 -39.5s5.5 -28.5 16.5 -39.5s24.167 -16.5 39.5 -16.5s28.5 5.5 39.5 16.5s16.5 24.167 16.5 39.5z" />
    <glyph glyph-name="copyright" unicode="&#xa9;" horiz-adv-x="640" 
d="M615 295c0 40 -7.66699 78 -23 114s-36.5 67.5 -63.5 94.5s-58.5 48.167 -94.5 63.5s-74 23 -114 23s-77.833 -7.5 -113.5 -22.5s-67.167 -36.167 -94.5 -63.5s-48.666 -59 -63.999 -95s-23 -74 -23 -114s7.66699 -77.833 23 -113.5s36.666 -67.167 63.999 -94.5
s58.833 -48.666 94.5 -63.999s73.5 -23 113.5 -23s78 7.66699 114 23s67.5 36.666 94.5 63.999s48.167 58.833 63.5 94.5s23 73.5 23 113.5zM320 53c-32.667 0 -63.834 6.16797 -93.501 18.501s-55.667 29.666 -78 51.999s-39.666 48.333 -51.999 78
s-18.5 60.834 -18.5 93.501s6.16699 63.834 18.5 93.501s29.666 55.667 51.999 78s48.333 39.833 78 52.5s60.834 19 93.501 19s63.834 -6.16699 93.501 -18.5s55.667 -29.833 78 -52.5s39.833 -48.834 52.5 -78.501s19 -60.834 19 -93.501s-6.33301 -63.834 -19 -93.501
s-30.167 -55.667 -52.5 -78s-48.333 -39.666 -78 -51.999s-60.834 -18.5 -93.501 -18.5zM319 468.001c-21.333 0 -41.333 -4.66699 -60 -14s-34.667 -22 -48 -38s-23.666 -34.333 -30.999 -55s-11 -42 -11 -64s3.83301 -43.333 11.5 -64s18.334 -39 32.001 -55
s29.667 -28.5 48 -37.5s37.833 -13.5 58.5 -13.5s37.5 1.16699 50.5 3.5s27.167 7.5 42.5 15.5v86l-54 -54c-10 -10 -23 -15 -39 -15c-13.333 0 -24.5 4 -33.5 12s-16 18.5 -21 31.5s-8.33301 27 -10 42s-2.5 31.167 -2.5 48.5c0 18.667 0.833008 35.5 2.5 50.5
s4.66699 29 9 42s11.166 23.5 20.499 31.5s21 12 35 12c18 0 31 -5 39 -15l54 -54v84c-16 8.66699 -30.333 14.167 -43 16.5s-29.334 3.5 -50.001 3.5z" />
    <glyph glyph-name="ordfeminine" unicode="&#xaa;" horiz-adv-x="0" 
 />
    <glyph glyph-name="guillemotleft" unicode="&#xab;" horiz-adv-x="350" 
d="M178 67v17l-61 128l61 127v18l-158 -145zM328 67v17l-61 128l61 127v18l-158 -145z" />
    <glyph glyph-name="logicalnot" unicode="&#xac;" horiz-adv-x="0" 
 />
    <glyph glyph-name="minus" unicode="&#xad;" horiz-adv-x="333" 
d="M46 200h240v69h-240v-69z" />
    <glyph glyph-name="minus" unicode="&#x2212;" horiz-adv-x="333" 
d="M46 200h240v69h-240v-69z" />
    <glyph glyph-name="registered" unicode="&#xae;" horiz-adv-x="640" 
d="M615 295c0 40 -7.66699 78 -23 114s-36.5 67.5 -63.5 94.5s-58.5 48.167 -94.5 63.5s-74 23 -114 23s-77.833 -7.5 -113.5 -22.5s-67.167 -36.167 -94.5 -63.5s-48.666 -59 -63.999 -95s-23 -74 -23 -114s7.66699 -77.833 23 -113.5s36.666 -67.167 63.999 -94.5
s58.833 -48.666 94.5 -63.999s73.5 -23 113.5 -23s78 7.66699 114 23s67.5 36.666 94.5 63.999s48.167 58.833 63.5 94.5s23 73.5 23 113.5zM320 53c-32.667 0 -63.834 6.16797 -93.501 18.501s-55.667 29.666 -78 51.999s-39.666 48.333 -51.999 78
s-18.5 60.834 -18.5 93.501s6.16699 63.834 18.5 93.501s29.666 55.667 51.999 78s48.333 39.833 78 52.5s60.834 19 93.501 19s63.834 -6.16699 93.501 -18.5s55.667 -29.833 78 -52.5s39.833 -48.834 52.5 -78.501s19 -60.834 19 -93.501s-6.33301 -63.834 -19 -93.501
s-30.167 -55.667 -52.5 -78s-48.333 -39.666 -78 -51.999s-60.834 -18.5 -93.501 -18.5zM289 170.001v110h21l73 -147h100l-38 37l-67 123c15.333 6 29.166 16 41.499 30s18.5 30.667 18.5 50c0 28.667 -12.667 50.5 -38 65.5s-54.666 22.5 -87.999 22.5h-130l36 -38v-253
l-36 -37h145zM289 424.001l23 -0.000976562c13.333 0 24.833 -5.16699 34.5 -15.5s14.5 -22.166 14.5 -35.499c0 -15.333 -4.66699 -28.5 -14 -39.5s-21 -16.5 -35 -16.5h-23v107z" />
    <glyph glyph-name="macron" unicode="&#xaf;" horiz-adv-x="250" 
d="M59 621h174v48h-174v-48z" />
    <glyph glyph-name="degree" unicode="&#xb0;" horiz-adv-x="496" 
d="M361 317c25.333 12.667 45.666 30.667 60.999 54s23 49 23 77c0 22 -5.33301 42.5 -16 61.5s-25.5 35.5 -44.5 49.5s-40.333 24.833 -64 32.5s-47.834 11.5 -72.501 11.5s-48.834 -3.83301 -72.501 -11.5s-44.667 -18.5 -63 -32.5s-33 -30.5 -44 -49.5
s-16.5 -39.5 -16.5 -61.5c0 -27.333 7.5 -52.833 22.5 -76.5s35.167 -42.5 60.5 -56.5c-33.333 -14 -58.666 -34.5 -75.999 -61.5s-26 -58.833 -26 -95.5c0 -26 6 -49.667 18 -71s28.333 -39.5 49 -54.5s43.834 -26.333 69.501 -34s51.834 -11.5 78.501 -11.5
s53 3.83301 79 11.5s49.333 19 70 34s37 33.167 49 54.5s18 45 18 71c0 36.667 -8.83301 68.667 -26.5 96s-43.167 48.333 -76.5 63zM160 158c0 34 7.66699 64.167 23 90.5s37 39.5 65 39.5s49.833 -13.167 65.5 -39.5s23.5 -56.5 23.5 -90.5c0 -32 -8 -60.333 -24 -85
s-37.667 -37 -65 -37c-26.667 0 -48 12.167 -64 36.5s-24 52.833 -24 85.5zM316 437c0 -25.333 -6 -48.5 -18 -69.5s-28.667 -31.5 -50 -31.5c-20.667 0 -37 10.5 -49 31.5s-18 44.167 -18 69.5c0 33.333 5.33301 61.166 16 83.499s27.667 33.5 51 33.5
c24 0 41.333 -11.167 52 -33.5s16 -50.166 16 -83.499z" />
    <glyph glyph-name="plusminus" unicode="&#xb1;" horiz-adv-x="0" 
 />
    <glyph glyph-name="twosuperior" unicode="&#xb2;" horiz-adv-x="353" 
d="M94 560l18.998 -18.999l30 16c5.33301 2 10 3 14 3c14.667 0 26.334 -5.83301 35.001 -17.5s13 -23.834 13 -36.501c0 -11.333 -4 -23 -12 -35l-105 -143v-37h188v82l-30 -30h-98l102 122c6 6 11.5 13.833 16.5 23.5s7.5 21.167 7.5 34.5
c0 23.333 -9.83301 42.5 -29.5 57.5s-40.5 22.5 -62.5 22.5c-19.333 0 -34.666 -4.33301 -45.999 -13z" />
    <glyph glyph-name="threesuperior" unicode="&#xb3;" horiz-adv-x="358" 
d="M128 446c18 0 33.832 -6 47.499 -18s20.5 -26.333 20.5 -43c0 -18 -7.5 -33 -22.5 -45s-32.5 -18 -52.5 -18h-25v-29h25c18 0 35.5 1.66699 52.5 5s33 8.66602 48 15.999s26.833 16.833 35.5 28.5s13 25.834 13 42.501c0 18 -5.33301 33.167 -16 45.5
s-24.334 21.5 -41.001 27.5c14.667 7.33301 26.334 17.833 35.001 31.5s13 27.834 13 42.501c0 21.333 -8.66699 38.666 -26 51.999s-39 20 -65 20c-23.333 0 -44 -5.33301 -62 -16l-17 -10l20 -22c2.66699 2 6.66699 4.16699 12 6.5s11.333 3.5 18 3.5
c14.667 0 26.334 -4.66699 35.001 -14s13 -19 13 -29c0 -12 -5.66699 -24 -17 -36s-26 -18 -44 -18v-23z" />
    <glyph glyph-name="acute" unicode="&#xb4;" horiz-adv-x="438" 
d="M230 654c0 8 -2.83301 15.5 -8.5 22.5s-15.5 10.5 -29.5 10.5c-12 0 -22 -4 -30 -12l-128 -127l172 70c16 6.66699 24 18.667 24 36z" />
    <glyph glyph-name="mu" unicode="&#xb5;" horiz-adv-x="494" 
d="M0 369l58 -57v-479h182l-59 59v95c27.333 0 59 17 95 51l36 36v-74h182l-59 59v372l-181 -62l58 -57v-174l-41 -40c-20.667 -21.333 -39 -32 -55 -32c-12 0 -20.833 4 -26.5 12s-8.5 16.333 -8.5 25v328z" />
    <glyph glyph-name="paragraph" unicode="&#xb6;" horiz-adv-x="475" 
d="M326 -167l116.001 0.00390625l-51 51v655l51 51h-238c-22.667 0 -44.334 -4.5 -65.001 -13.5s-38.834 -21.333 -54.501 -37s-28 -33.834 -37 -54.501s-13.5 -42.334 -13.5 -65.001s4.33301 -44.334 13 -65.001s20.667 -38.834 36 -54.501s33.333 -28 54 -37
s42.334 -13.5 65.001 -13.5c-0.666992 -227.333 -1 -349.333 -1 -366l-51 -51h116v705h60v-705z" />
    <glyph glyph-name="periodcentered" unicode="&#xb7;" horiz-adv-x="488" 
d="M217 221c24.667 0 45.834 5.49902 63.501 16.499s32.5 25.5 44.5 43.5c-8 -53.333 -20 -97.333 -36 -132s-33.333 -60.667 -52 -78s-35.667 -29.166 -51 -35.499s-31.666 -11.166 -48.999 -14.499l-12 -3l10 -31c8.66699 -0.666992 17 -1 25 -1
c43.333 0 83.666 11 120.999 33s69.166 51.667 95.499 89s46.5 78.666 60.5 123.999s21 90.333 21 135c0 69.333 -19.833 126 -59.5 170s-93.167 66 -160.5 66c-22.667 0 -46.167 -4.66699 -70.5 -14s-47.166 -22.666 -68.499 -39.999s-38.333 -38 -51 -62
s-19 -49.667 -19 -77c0 -28.667 5.33301 -54.667 16 -78s25.167 -43.333 43.5 -60s38.666 -29.334 60.999 -38.001s44.833 -13 67.5 -13zM161 422.999c0 36.667 6.83398 67.6641 20.501 92.9971s32.5 38 56.5 38c64.667 0 97 -58.333 97 -175
c0 -11.333 -0.333008 -20 -1 -26s-1.33398 -9.66699 -2.00098 -11c-4.66699 -17.333 -16.667 -32.333 -36 -45s-38.333 -19 -57 -19c-18 0 -32.5 4.83301 -43.5 14.5s-19 21.834 -24 36.501s-8 29.334 -9 44.001s-1.5 31.334 -1.5 50.001z" />
    <glyph glyph-name="periodcentered" unicode="&#x2219;" horiz-adv-x="488" 
d="M217 221c24.667 0 45.834 5.49902 63.501 16.499s32.5 25.5 44.5 43.5c-8 -53.333 -20 -97.333 -36 -132s-33.333 -60.667 -52 -78s-35.667 -29.166 -51 -35.499s-31.666 -11.166 -48.999 -14.499l-12 -3l10 -31c8.66699 -0.666992 17 -1 25 -1
c43.333 0 83.666 11 120.999 33s69.166 51.667 95.499 89s46.5 78.666 60.5 123.999s21 90.333 21 135c0 69.333 -19.833 126 -59.5 170s-93.167 66 -160.5 66c-22.667 0 -46.167 -4.66699 -70.5 -14s-47.166 -22.666 -68.499 -39.999s-38.333 -38 -51 -62
s-19 -49.667 -19 -77c0 -28.667 5.33301 -54.667 16 -78s25.167 -43.333 43.5 -60s38.666 -29.334 60.999 -38.001s44.833 -13 67.5 -13zM161 422.999c0 36.667 6.83398 67.6641 20.501 92.9971s32.5 38 56.5 38c64.667 0 97 -58.333 97 -175
c0 -11.333 -0.333008 -20 -1 -26s-1.33398 -9.66699 -2.00098 -11c-4.66699 -17.333 -16.667 -32.333 -36 -45s-38.333 -19 -57 -19c-18 0 -32.5 4.83301 -43.5 14.5s-19 21.834 -24 36.501s-8 29.334 -9 44.001s-1.5 31.334 -1.5 50.001z" />
    <glyph glyph-name="cedilla" unicode="&#xb8;" horiz-adv-x="210" 
d="M136 19l-90.001 -89.999h38c10.667 0 20 -3.16699 28 -9.5s12 -14.5 12 -24.5c0 -11.333 -3.83301 -19.833 -11.5 -25.5s-17.5 -8.5 -29.5 -8.5h-15v-24h15c33.333 0 63.833 6.66699 91.5 20s41.5 31.666 41.5 54.999c0 15.333 -6.16699 28.333 -18.5 39
s-27.166 16.667 -44.499 18l51 50h-68z" />
    <glyph glyph-name="onesuperior" unicode="&#xb9;" horiz-adv-x="267" 
d="M197 293l-30 30v280l-97 -26l27 -27v-227l-30 -30h130z" />
    <glyph glyph-name="ordmasculine" unicode="&#xba;" horiz-adv-x="0" 
 />
    <glyph glyph-name="guillemotright" unicode="&#xbb;" horiz-adv-x="350" 
d="M172 67l158 145l-158 145v-18l61 -127l-61 -128v-17zM22 67l158 145l-158 145v-18l61 -127l-61 -128v-17z" />
    <glyph glyph-name="onequarter" unicode="&#xbc;" horiz-adv-x="623" 
d="M197 293l-30 30v280l-97 -26l27 -27v-227l-30 -30h130zM136 0h87l260 632h-86zM443 -2h70v84h31v39h-31v183h-36l-144 -200v-22h110v-84zM443 190v-69h-50z" />
    <glyph glyph-name="onehalf" unicode="&#xbd;" horiz-adv-x="600" 
d="M197 293l-30 30v280l-97 -26l27 -27v-227l-30 -30h130zM372 262l17.9971 -18.999l30 15c4.66699 2.66699 9.33398 4 14.001 4c14.667 0 26.5 -5.83301 35.5 -17.5s13.5 -23.834 13.5 -36.501c0 -12 -4.33301 -23.667 -13 -35l-105 -144v-37h188v83l-30 -30h-98l103 122v0
c6.66699 7.33301 12.334 15.5 17.001 24.5s7 19.833 7 32.5c0 23.333 -10 42.5 -30 57.5s-41 22.5 -63 22.5c-19.333 0 -34.666 -4 -45.999 -12zM135.997 0.000976562h87l260 632h-86z" />
    <glyph glyph-name="threequarters" unicode="&#xbe;" horiz-adv-x="623" 
d="M84 446c18.667 0 34.833 -5.99707 48.5 -17.9971s20.5 -26.333 20.5 -43c0 -18 -7.5 -33 -22.5 -45s-32.5 -18 -52.5 -18h-25v-29h25c17.333 0 34.666 1.66699 51.999 5s33.333 8.66602 48 15.999s26.5 16.833 35.5 28.5s13.5 25.834 13.5 42.501
c0 18 -5.33301 33.167 -16 45.5s-24.667 21.5 -42 27.5c15.333 7.33301 27.333 17.666 36 30.999s13 27.666 13 42.999c0 21.333 -8.66699 38.666 -26 51.999s-39 20 -65 20c-22.667 0 -43.667 -5.33301 -63 -16l-16 -10l20 -22c2.66699 2 6.66699 4.16699 12 6.5
s11.333 3.5 18 3.5c14.667 0 26.334 -4.66699 35.001 -14s13 -19 13 -29c0 -12 -5.66699 -24 -17 -36s-26.333 -18 -45 -18v-23zM135.999 0.00292969h87l260 632h-86zM442.999 -1.99707h70v84h31v39h-31v183h-36l-144 -200v-22h110v-84zM442.999 190.003v-69h-50z" />
    <glyph glyph-name="questiondown" unicode="&#xbf;" horiz-adv-x="450" 
d="M371 -37l-69.002 -72.999c-8 -4 -15 -6.83301 -21 -8.5s-13.667 -2.5 -23 -2.5c-24 0 -47.667 9.16699 -71 27.5s-35 43.5 -35 75.5c0 12.667 2.83301 26.167 8.5 40.5s12.834 26.5 21.501 36.5l96 114v121h-48v-39l-182 -191c-6.66699 -6 -13 -15 -19 -27
s-9 -27.667 -9 -47c0 -16.667 3.33301 -34.5 10 -53.5s17.334 -37.5 32.001 -55.5s34.5 -32.667 59.5 -44s54.833 -17 89.5 -17c18 0 33.5 0.666992 46.5 2s28.833 3.66602 47.5 6.99902l129 22zM187.998 403.001c0 -17.333 6 -32.166 18 -44.499s26.667 -18.5 44 -18.5
s32.166 6.16699 44.499 18.5s18.5 27.166 18.5 44.499s-6.16699 32 -18.5 44s-27.166 18 -44.499 18s-32 -6 -44 -18s-18 -26.667 -18 -44z" />
    <glyph glyph-name="Agrave" unicode="&#xc0;" horiz-adv-x="533" 
d="M144 761l-1 -0.000976562c-6.66699 -5.33301 -10 -12.666 -10 -21.999c0 -8 2.33301 -15.667 7 -23s10.667 -12.333 18 -15h-1l172 -70l-128 127c-8.66699 8 -19 12 -31 12c-10 0 -18.667 -3 -26 -9zM175 -0.000976562l-62 63l35 100h177l33 -100l-62 -63h254l-64 64
l-183 526h-76l-188 -526l-64 -64h200zM169 222.999l69 195l65 -195h-134z" />
    <glyph glyph-name="Aacute" unicode="&#xc1;" horiz-adv-x="533" 
d="M387 737c0 8 -2.83301 15.5 -8.5 22.5s-15.5 10.5 -29.5 10.5c-12 0 -22 -4 -30 -12l-128 -127l172 70c16 6.66699 24 18.667 24 36zM175 0l-62 63l35 100h177l33 -100l-62 -63h254l-64 64l-183 526h-76l-188 -526l-64 -64h200zM169 223l69 195l65 -195h-134z" />
    <glyph glyph-name="Acircumflex" unicode="&#xc2;" horiz-adv-x="533" 
d="M441 630l-161 161l-162 -161h18l144 61l143 -61h18zM175 0l-62 63l35 100h177l33 -100l-62 -63h254l-64 64l-183 526h-76l-188 -526l-64 -64h200zM169 223l69 195l65 -195h-134z" />
    <glyph glyph-name="Atilde" unicode="&#xc3;" horiz-adv-x="533" 
d="M176 638c6 10 11.501 17.333 16.501 22s11.5 7 19.5 7s17.333 -4 28 -12c7.33301 -5.33301 14.166 -9.5 20.499 -12.5s14.5 -4.5 24.5 -4.5c21.333 0 43 9 65 27s35 40.333 39 67h-20c-10.667 -19.333 -22.334 -29 -35.001 -29c-7.33301 0 -15.666 3.66699 -24.999 11
c-6.66699 6 -13.5 10.5 -20.5 13.5s-16.5 4.5 -28.5 4.5c-21.333 0 -43 -9 -65 -27s-35 -40.333 -39 -67h20zM175.001 0l-62 63l35 100h177l33 -100l-62 -63h254l-64 64l-183 526h-76l-188 -526l-64 -64h200zM169.001 223l69 195l65 -195h-134z" />
    <glyph glyph-name="Adieresis" unicode="&#xc4;" horiz-adv-x="533" 
d="M401 689c0 15.333 -5.5 28.5 -16.5 39.5s-24.167 16.5 -39.5 16.5s-28.5 -5.5 -39.5 -16.5s-16.5 -24.167 -16.5 -39.5s5.5 -28.5 16.5 -39.5s24.167 -16.5 39.5 -16.5s28.5 5.5 39.5 16.5s16.5 24.167 16.5 39.5zM246 690c0 15.333 -5.5 28.5 -16.5 39.5
s-24.167 16.5 -39.5 16.5s-28.5 -5.5 -39.5 -16.5s-16.5 -24.167 -16.5 -39.5s5.5 -28.5 16.5 -39.5s24.167 -16.5 39.5 -16.5s28.5 5.5 39.5 16.5s16.5 24.167 16.5 39.5zM175 0l-62 63l35 100h177l33 -100l-62 -63h254l-64 64l-183 526h-76l-188 -526l-64 -64h200z
M169 223l69 195l65 -195h-134z" />
    <glyph glyph-name="Aring" unicode="&#xc5;" horiz-adv-x="533" 
d="M239 638c0 7.33301 2.66699 13.333 8 18s11.333 7 18 7c7.33301 0 13.5 -2.33301 18.5 -7s7.5 -10.667 7.5 -18s-2.5 -13.5 -7.5 -18.5s-11.167 -7.5 -18.5 -7.5c-6.66699 0 -12.667 2.5 -18 7.5s-8 11.167 -8 18.5zM169 223l69 195l65 -195h-134zM311 565
c12 8 21.667 18.333 29 31s11 26.667 11 42c0 23.333 -8.33301 43.333 -25 60s-37 25 -61 25c-23.333 0 -43.5 -8.33301 -60.5 -25s-25.5 -36.667 -25.5 -60c0 -14.667 3.5 -28.5 10.5 -41.5s16.5 -23.167 28.5 -30.5l-179 -502l-64 -64h200l-62 63l35 100h177l33 -100
l-62 -63h254l-64 64z" />
    <glyph glyph-name="AE" unicode="&#xc6;" horiz-adv-x="675" 
d="M304 0h345v141l-80 -80h-73l-78 222h105l64 -63v188l-64 -64h-125l-66 185h237l80 -80v141h-414l-187 -526l-65 -64h200l-62 63l35 100h177l34 -100zM178 223l68 195l66 -195h-134z" />
    <glyph glyph-name="Ccedilla" unicode="&#xc7;" horiz-adv-x="486" 
d="M218 1l-71.999 -71.999h38c10.667 0 20 -3.16699 28 -9.5s12 -14.5 12 -24.5c0 -11.333 -3.83301 -19.833 -11.5 -25.5s-17.5 -8.5 -29.5 -8.5h-15v-24h15c33.333 0 63.833 6.66699 91.5 20s41.5 31.666 41.5 54.999c0 15.333 -6.16699 28.333 -18.5 39
s-27.166 16.667 -44.499 18l20 19c4.66699 -0.666992 12 -1 22 -1c36 0 65.833 2.16699 89.5 6.5s49.167 13.833 76.5 28.5v148l-93 -93c-19.333 -19.333 -43.666 -29 -72.999 -29c-25.333 0 -46.5 7.33301 -63.5 22s-30 34 -39 58s-15.167 50 -18.5 78s-5 57.667 -5 89
c0 33.333 1.5 64 4.5 92s8.83301 54 17.5 78s21.5 43.5 38.5 58.5s38.833 22.5 65.5 22.5c29.333 0 53.666 -9.33301 72.999 -28l93 -94v144c-28 14.667 -53.167 24.167 -75.5 28.5s-52.5 6.5 -90.5 6.5c-37.333 0 -72.5 -8.33301 -105.5 -25s-61.833 -39.667 -86.5 -69
s-43.834 -62.5 -57.501 -99.5s-20.5 -75.167 -20.5 -114.5c0 -32 4.66699 -63.5 14 -94.5s22.666 -59.833 39.999 -86.5s37.833 -49.667 61.5 -69s49.5 -34 77.5 -44z" />
    <glyph glyph-name="Egrave" unicode="&#xc8;" 
d="M136 761l-1 -0.000976562c-6.66699 -5.33301 -10 -12.666 -10 -21.999c0 -8 2.33301 -15.667 7 -23s10.667 -12.333 18 -15h-1l172 -70l-128 127c-8.66699 8 -19 12 -31 12c-10 0 -18.667 -3 -26 -9zM433 -0.000976562v141l-80 -80h-150v222h104l63 -63v188l-63 -64h-104
v185h150l80 -80v141h-416l63 -63v-464l-63 -63h416z" />
    <glyph glyph-name="Eacute" unicode="&#xc9;" 
d="M387 737c0 8 -2.83301 15.5 -8.5 22.5s-15.5 10.5 -29.5 10.5c-12 0 -22 -4 -30 -12l-128 -127l172 70c16 6.66699 24 18.667 24 36zM433 0v141l-80 -80h-150v222h104l63 -63v188l-63 -64h-104v185h150l80 -80v141h-416l63 -63v-464l-63 -63h416z" />
    <glyph glyph-name="Ecircumflex" unicode="&#xca;" 
d="M416 630l-161 161l-162 -161h18l144 61l143 -61h18zM433 0v141l-80 -80h-150v222h104l63 -63v188l-63 -64h-104v185h150l80 -80v141h-416l63 -63v-464l-63 -63h416z" />
    <glyph glyph-name="Edieresis" unicode="&#xcb;" 
d="M400 689c0 15.333 -5.5 28.5 -16.5 39.5s-24.167 16.5 -39.5 16.5s-28.5 -5.5 -39.5 -16.5s-16.5 -24.167 -16.5 -39.5s5.5 -28.5 16.5 -39.5s24.167 -16.5 39.5 -16.5s28.5 5.5 39.5 16.5s16.5 24.167 16.5 39.5zM245 690c0 15.333 -5.5 28.5 -16.5 39.5
s-24.167 16.5 -39.5 16.5s-28.5 -5.5 -39.5 -16.5s-16.5 -24.167 -16.5 -39.5s5.5 -28.5 16.5 -39.5s24.167 -16.5 39.5 -16.5s28.5 5.5 39.5 16.5s16.5 24.167 16.5 39.5zM433 0v141l-80 -80h-150v222h104l63 -63v188l-63 -64h-104v185h150l80 -80v141h-416l63 -63v-464
l-63 -63h416z" />
    <glyph glyph-name="Igrave" unicode="&#xcc;" horiz-adv-x="300" 
d="M40 761l-1 -0.000976562c-6.66699 -5.33301 -10 -12.666 -10 -21.999c0 -8 2.33301 -15.667 7 -23s10.667 -12.333 18 -15h-1l172 -70l-128 127c-8.66699 8 -19 12 -31 12c-10 0 -18.667 -3 -26 -9zM25 589.999l63 -63v-464l-63 -63h250l-63 63v464l63 63h-250z" />
    <glyph glyph-name="Iacute" unicode="&#xcd;" horiz-adv-x="300" 
d="M283 737c0 8 -2.83301 15.5 -8.5 22.5s-15.5 10.5 -29.5 10.5c-12 0 -22 -4 -30 -12l-128 -127l172 70c16 6.66699 24 18.667 24 36zM25 590l63 -63v-464l-63 -63h250l-63 63v464l63 63h-250z" />
    <glyph glyph-name="Icircumflex" unicode="&#xce;" horiz-adv-x="300" 
d="M320 630l-161 161l-162 -161h18l144 61l143 -61h18zM25 590l63 -63v-464l-63 -63h250l-63 63v464l63 63h-250z" />
    <glyph glyph-name="Idieresis" unicode="&#xcf;" horiz-adv-x="300" 
d="M296 689c0 15.333 -5.5 28.5 -16.5 39.5s-24.167 16.5 -39.5 16.5s-28.5 -5.5 -39.5 -16.5s-16.5 -24.167 -16.5 -39.5s5.5 -28.5 16.5 -39.5s24.167 -16.5 39.5 -16.5s28.5 5.5 39.5 16.5s16.5 24.167 16.5 39.5zM141 690c0 15.333 -5.5 28.5 -16.5 39.5
s-24.167 16.5 -39.5 16.5s-28.5 -5.5 -39.5 -16.5s-16.5 -24.167 -16.5 -39.5s5.5 -28.5 16.5 -39.5s24.167 -16.5 39.5 -16.5s28.5 5.5 39.5 16.5s16.5 24.167 16.5 39.5zM25 590l63 -63v-464l-63 -63h250l-63 63v464l63 63h-250z" />
    <glyph glyph-name="Eth" unicode="&#xd0;" horiz-adv-x="599" 
d="M220 341v188.001h63c25.333 0 47.5 -6.66699 66.5 -20s34.333 -31.5 46 -54.5s20.334 -48.167 26.001 -75.5s8.5 -55.333 8.5 -84s-2.83301 -56.834 -8.5 -84.501s-14.334 -52.667 -26.001 -75s-27 -40.333 -46 -54s-41.167 -20.5 -66.5 -20.5h-63v197h62v83h-62z
M97 258.001v-195.006l-64 -63h271c38 0 73.667 7.83301 107 23.5s62.166 37.334 86.499 65.001s43.166 59.334 56.499 95.001s20 72.834 20 111.501s-6.66699 75.834 -20 111.501s-32.166 67.334 -56.499 95.001s-53.166 49.334 -86.499 65.001s-69 23.5 -107 23.5h-271
l64 -63v-186h-69v-83h69z" />
    <glyph glyph-name="Ntilde" unicode="&#xd1;" horiz-adv-x="563" 
d="M213 638c6 10 11.501 17.333 16.501 22s11.5 7 19.5 7s17.333 -4 28 -12c7.33301 -5.33301 14.166 -9.5 20.499 -12.5s14.5 -4.5 24.5 -4.5c21.333 0 43 9 65 27s35 40.333 39 67h-20c-10.667 -19.333 -22.334 -29 -35.001 -29c-7.33301 0 -15.666 3.66699 -24.999 11
c-6.66699 6 -13.5 10.5 -20.5 13.5s-16.5 4.5 -28.5 4.5c-21.333 0 -43 -9 -65 -27s-35 -40.333 -39 -67h20zM149.001 63v368l346 -500v596l63 63h-195l63 -63v-289l-245 352h-164l63 -63v-464l-63 -63h196z" />
    <glyph glyph-name="Ograve" unicode="&#xd2;" horiz-adv-x="590" 
d="M177 761l-1 -0.000976562c-6.66699 -5.33301 -10 -12.666 -10 -21.999c0 -8 2.33301 -15.667 7 -23s10.667 -12.333 18 -15h-1l172 -70l-128 127c-8.66699 8 -19 12 -31 12c-10 0 -18.667 -3 -26 -9zM25 294.999c0 -40 6.49902 -78.833 19.499 -116.5
s31.5 -71.167 55.5 -100.5s52.667 -52.5 86 -69.5s69.666 -25.5 108.999 -25.5s75.666 8.5 108.999 25.5s62 40.167 86 69.5s42.5 62.833 55.5 100.5s19.5 76.5 19.5 116.5s-6.33301 78.833 -19 116.5s-31.167 71.167 -55.5 100.5s-53.166 52.5 -86.499 69.5
s-69.666 25.5 -108.999 25.5s-75.666 -8.5 -108.999 -25.5s-62 -40.167 -86 -69.5s-42.5 -62.833 -55.5 -100.5s-19.5 -76.5 -19.5 -116.5zM294.999 43.999c-25.333 0 -46.334 7.49902 -63.001 22.499s-29.5 34.667 -38.5 59s-15.333 50.833 -19 79.5s-5.5 58.667 -5.5 90
c0 32 1.83301 62.333 5.5 91s9.83398 55 18.501 79s21.5 43.5 38.5 58.5s38.167 22.5 63.5 22.5s46.5 -7.5 63.5 -22.5s30 -34.667 39 -59s15.167 -50.666 18.5 -78.999s5 -58.5 5 -90.5c0 -31.333 -1.66699 -61.5 -5 -90.5s-9.5 -55.5 -18.5 -79.5s-22 -43.5 -39 -58.5
s-38.167 -22.5 -63.5 -22.5z" />
    <glyph glyph-name="Oacute" unicode="&#xd3;" horiz-adv-x="590" 
d="M425 737c0 8 -2.83301 15.5 -8.5 22.5s-15.5 10.5 -29.5 10.5c-12 0 -22 -4 -30 -12l-128 -127l172 70c16 6.66699 24 18.667 24 36zM25 295c0 -40 6.49902 -78.833 19.499 -116.5s31.5 -71.167 55.5 -100.5s52.667 -52.5 86 -69.5s69.666 -25.5 108.999 -25.5
s75.666 8.5 108.999 25.5s62 40.167 86 69.5s42.5 62.833 55.5 100.5s19.5 76.5 19.5 116.5s-6.33301 78.833 -19 116.5s-31.167 71.167 -55.5 100.5s-53.166 52.5 -86.499 69.5s-69.666 25.5 -108.999 25.5s-75.666 -8.5 -108.999 -25.5s-62 -40.167 -86 -69.5
s-42.5 -62.833 -55.5 -100.5s-19.5 -76.5 -19.5 -116.5zM294.999 44c-25.333 0 -46.334 7.49902 -63.001 22.499s-29.5 34.667 -38.5 59s-15.333 50.833 -19 79.5s-5.5 58.667 -5.5 90c0 32 1.83301 62.333 5.5 91s9.83398 55 18.501 79s21.5 43.5 38.5 58.5
s38.167 22.5 63.5 22.5s46.5 -7.5 63.5 -22.5s30 -34.667 39 -59s15.167 -50.666 18.5 -78.999s5 -58.5 5 -90.5c0 -31.333 -1.66699 -61.5 -5 -90.5s-9.5 -55.5 -18.5 -79.5s-22 -43.5 -39 -58.5s-38.167 -22.5 -63.5 -22.5z" />
    <glyph glyph-name="Ocircumflex" unicode="&#xd4;" horiz-adv-x="590" 
d="M470 626l-161 161l-162 -161h18l144 61l143 -61h18zM25 295c0 -40 6.49902 -78.833 19.499 -116.5s31.5 -71.167 55.5 -100.5s52.667 -52.5 86 -69.5s69.666 -25.5 108.999 -25.5s75.666 8.5 108.999 25.5s62 40.167 86 69.5s42.5 62.833 55.5 100.5
s19.5 76.5 19.5 116.5s-6.33301 78.833 -19 116.5s-31.167 71.167 -55.5 100.5s-53.166 52.5 -86.499 69.5s-69.666 25.5 -108.999 25.5s-75.666 -8.5 -108.999 -25.5s-62 -40.167 -86 -69.5s-42.5 -62.833 -55.5 -100.5s-19.5 -76.5 -19.5 -116.5zM294.999 44
c-25.333 0 -46.334 7.49902 -63.001 22.499s-29.5 34.667 -38.5 59s-15.333 50.833 -19 79.5s-5.5 58.667 -5.5 90c0 32 1.83301 62.333 5.5 91s9.83398 55 18.501 79s21.5 43.5 38.5 58.5s38.167 22.5 63.5 22.5s46.5 -7.5 63.5 -22.5s30 -34.667 39 -59
s15.167 -50.666 18.5 -78.999s5 -58.5 5 -90.5c0 -31.333 -1.66699 -61.5 -5 -90.5s-9.5 -55.5 -18.5 -79.5s-22 -43.5 -39 -58.5s-38.167 -22.5 -63.5 -22.5z" />
    <glyph glyph-name="Otilde" unicode="&#xd5;" horiz-adv-x="590" 
d="M213 638c6 10 11.501 17.333 16.501 22s11.5 7 19.5 7s17.333 -4 28 -12c7.33301 -5.33301 14.166 -9.5 20.499 -12.5s14.5 -4.5 24.5 -4.5c21.333 0 43 9 65 27s35 40.333 39 67h-20c-10.667 -19.333 -22.334 -29 -35.001 -29c-7.33301 0 -15.666 3.66699 -24.999 11
c-6.66699 6 -13.5 10.5 -20.5 13.5s-16.5 4.5 -28.5 4.5c-21.333 0 -43 -9 -65 -27s-35 -40.333 -39 -67h20zM25.001 295c0 -40 6.49902 -78.833 19.499 -116.5s31.5 -71.167 55.5 -100.5s52.667 -52.5 86 -69.5s69.666 -25.5 108.999 -25.5s75.666 8.5 108.999 25.5
s62 40.167 86 69.5s42.5 62.833 55.5 100.5s19.5 76.5 19.5 116.5s-6.33301 78.833 -19 116.5s-31.167 71.167 -55.5 100.5s-53.166 52.5 -86.499 69.5s-69.666 25.5 -108.999 25.5s-75.666 -8.5 -108.999 -25.5s-62 -40.167 -86 -69.5s-42.5 -62.833 -55.5 -100.5
s-19.5 -76.5 -19.5 -116.5zM295 44c-25.333 0 -46.334 7.49902 -63.001 22.499s-29.5 34.667 -38.5 59s-15.333 50.833 -19 79.5s-5.5 58.667 -5.5 90c0 32 1.83301 62.333 5.5 91s9.83398 55 18.501 79s21.5 43.5 38.5 58.5s38.167 22.5 63.5 22.5s46.5 -7.5 63.5 -22.5
s30 -34.667 39 -59s15.167 -50.666 18.5 -78.999s5 -58.5 5 -90.5c0 -31.333 -1.66699 -61.5 -5 -90.5s-9.5 -55.5 -18.5 -79.5s-22 -43.5 -39 -58.5s-38.167 -22.5 -63.5 -22.5z" />
    <glyph glyph-name="Odieresis" unicode="&#xd6;" horiz-adv-x="590" 
d="M433 689c0 15.333 -5.5 28.5 -16.5 39.5s-24.167 16.5 -39.5 16.5s-28.5 -5.5 -39.5 -16.5s-16.5 -24.167 -16.5 -39.5s5.5 -28.5 16.5 -39.5s24.167 -16.5 39.5 -16.5s28.5 5.5 39.5 16.5s16.5 24.167 16.5 39.5zM278 690c0 15.333 -5.5 28.5 -16.5 39.5
s-24.167 16.5 -39.5 16.5s-28.5 -5.5 -39.5 -16.5s-16.5 -24.167 -16.5 -39.5s5.5 -28.5 16.5 -39.5s24.167 -16.5 39.5 -16.5s28.5 5.5 39.5 16.5s16.5 24.167 16.5 39.5zM25 295c0 -40 6.49902 -78.833 19.499 -116.5s31.5 -71.167 55.5 -100.5s52.667 -52.5 86 -69.5
s69.666 -25.5 108.999 -25.5s75.666 8.5 108.999 25.5s62 40.167 86 69.5s42.5 62.833 55.5 100.5s19.5 76.5 19.5 116.5s-6.33301 78.833 -19 116.5s-31.167 71.167 -55.5 100.5s-53.166 52.5 -86.499 69.5s-69.666 25.5 -108.999 25.5s-75.666 -8.5 -108.999 -25.5
s-62 -40.167 -86 -69.5s-42.5 -62.833 -55.5 -100.5s-19.5 -76.5 -19.5 -116.5zM294.999 44c-25.333 0 -46.334 7.49902 -63.001 22.499s-29.5 34.667 -38.5 59s-15.333 50.833 -19 79.5s-5.5 58.667 -5.5 90c0 32 1.83301 62.333 5.5 91s9.83398 55 18.501 79
s21.5 43.5 38.5 58.5s38.167 22.5 63.5 22.5s46.5 -7.5 63.5 -22.5s30 -34.667 39 -59s15.167 -50.666 18.5 -78.999s5 -58.5 5 -90.5c0 -31.333 -1.66699 -61.5 -5 -90.5s-9.5 -55.5 -18.5 -79.5s-22 -43.5 -39 -58.5s-38.167 -22.5 -63.5 -22.5z" />
    <glyph glyph-name="multiply" unicode="&#xd7;" horiz-adv-x="0" 
 />
    <glyph glyph-name="Oslash" unicode="&#xd8;" horiz-adv-x="590" 
d="M25 295c0 -47.333 9 -92.667 27 -136s42.667 -79.333 74 -108l-50 -93h57l35 61c38 -24 80.333 -36 127 -36c39.333 0 75.666 8.5 108.999 25.5s62 40.167 86 69.5s42.5 62.833 55.5 100.5s19.5 76.5 19.5 116.5c0 47.333 -9.16699 92.833 -27.5 136.5
s-43.5 80.167 -75.5 109.5l50 91h-58l-33 -60c-40 23.333 -82 35 -126 35c-39.333 0 -75.666 -8.5 -108.999 -25.5s-62 -40.167 -86 -69.5s-42.5 -62.833 -55.5 -100.5s-19.5 -76.5 -19.5 -116.5zM208 91.999l70 124.002l88 157l38 69c6 -22 10.333 -45.333 13 -70
s4 -50.334 4 -77.001c0 -31.333 -1.66699 -61.5 -5 -90.5s-9.5 -55.5 -18.5 -79.5s-22 -43.5 -39 -58.5s-38.167 -22.5 -63.5 -22.5c-19.333 0 -35.833 4.16699 -49.5 12.5s-26.167 20.166 -37.5 35.499zM381 501.001l-92.5029 -162.999l-104.5 -185
c-5.33301 20 -9.16602 42.333 -11.499 67s-3.5 49.667 -3.5 75c0 32 1.83301 62.333 5.5 91s9.83398 55 18.501 79s21.5 43.5 38.5 58.5s38.167 22.5 63.5 22.5c18.667 0 34.834 -3.83301 48.501 -11.5s26.167 -18.834 37.5 -33.501z" />
    <glyph glyph-name="Ugrave" unicode="&#xd9;" horiz-adv-x="558" 
d="M177 761l-1 -0.000976562c-6.66699 -5.33301 -10 -12.666 -10 -21.999c0 -8 2.33301 -15.667 7 -23s10.667 -12.333 18 -15h-1l172 -70l-128 127c-8.66699 8 -19 12 -31 12c-10 0 -18.667 -3 -26 -9zM72 157.999c0 -26.667 5.83398 -50.834 17.501 -72.501
s27.5 -40.167 47.5 -55.5s42.333 -27 67 -35s49.667 -12 75 -12c27.333 0 53.5 4.16699 78.5 12.5s47.167 20.333 66.5 36s34.666 34.334 45.999 56.001s17 45.167 17 70.5v369l63 63h-200l63 -63v-369c0 -30 -10.667 -55.833 -32 -77.5s-47 -32.5 -77 -32.5
s-55.667 10.833 -77 32.5s-32 47.5 -32 77.5v369l63 63h-250l64 -63v-369z" />
    <glyph glyph-name="Uacute" unicode="&#xda;" horiz-adv-x="558" 
d="M425 737c0 8 -2.83301 15.5 -8.5 22.5s-15.5 10.5 -29.5 10.5c-12 0 -22 -4 -30 -12l-128 -127l172 70c16 6.66699 24 18.667 24 36zM72 158c0 -26.667 5.83398 -50.834 17.501 -72.501s27.5 -40.167 47.5 -55.5s42.333 -27 67 -35s49.667 -12 75 -12
c27.333 0 53.5 4.16699 78.5 12.5s47.167 20.333 66.5 36s34.666 34.334 45.999 56.001s17 45.167 17 70.5v369l63 63h-200l63 -63v-369c0 -30 -10.667 -55.833 -32 -77.5s-47 -32.5 -77 -32.5s-55.667 10.833 -77 32.5s-32 47.5 -32 77.5v369l63 63h-250l64 -63v-369z" />
    <glyph glyph-name="Ucircumflex" unicode="&#xdb;" horiz-adv-x="558" 
d="M461 630l-161 161l-162 -161h18l144 61l143 -61h18zM72 158c0 -26.667 5.83398 -50.834 17.501 -72.501s27.5 -40.167 47.5 -55.5s42.333 -27 67 -35s49.667 -12 75 -12c27.333 0 53.5 4.16699 78.5 12.5s47.167 20.333 66.5 36s34.666 34.334 45.999 56.001
s17 45.167 17 70.5v369l63 63h-200l63 -63v-369c0 -30 -10.667 -55.833 -32 -77.5s-47 -32.5 -77 -32.5s-55.667 10.833 -77 32.5s-32 47.5 -32 77.5v369l63 63h-250l64 -63v-369z" />
    <glyph glyph-name="Udieresis" unicode="&#xdc;" horiz-adv-x="558" 
d="M437 693c0 15.333 -5.5 28.5 -16.5 39.5s-24.167 16.5 -39.5 16.5s-28.5 -5.5 -39.5 -16.5s-16.5 -24.167 -16.5 -39.5s5.5 -28.5 16.5 -39.5s24.167 -16.5 39.5 -16.5s28.5 5.5 39.5 16.5s16.5 24.167 16.5 39.5zM282 694c0 15.333 -5.5 28.5 -16.5 39.5
s-24.167 16.5 -39.5 16.5s-28.5 -5.5 -39.5 -16.5s-16.5 -24.167 -16.5 -39.5s5.5 -28.5 16.5 -39.5s24.167 -16.5 39.5 -16.5s28.5 5.5 39.5 16.5s16.5 24.167 16.5 39.5zM72 158c0 -26.667 5.83398 -50.834 17.501 -72.501s27.5 -40.167 47.5 -55.5s42.333 -27 67 -35
s49.667 -12 75 -12c27.333 0 53.5 4.16699 78.5 12.5s47.167 20.333 66.5 36s34.666 34.334 45.999 56.001s17 45.167 17 70.5v369l63 63h-200l63 -63v-369c0 -30 -10.667 -55.833 -32 -77.5s-47 -32.5 -77 -32.5s-55.667 10.833 -77 32.5s-32 47.5 -32 77.5v369l63 63h-250
l64 -63v-369z" />
    <glyph glyph-name="Yacute" unicode="&#xdd;" horiz-adv-x="504" 
d="M409 725c0 8 -2.83301 15.5 -8.5 22.5s-15.5 10.5 -29.5 10.5c-12 0 -22 -4 -30 -12l-128 -127l172 70c16 6.66699 24 18.667 24 36zM48 526l149 -260v-203l-64 -63h250l-63 63v203l145 260l64 64h-196l63 -62l-104 -192l-104 192l62 62h-267z" />
    <glyph glyph-name="Thorn" unicode="&#xde;" horiz-adv-x="521" 
d="M17 0l250.001 0.00195312l-64 63v62h64c30 0 59.167 3.66699 87.5 11s54.166 18.333 77.499 33s41.833 33 55.5 55s20.5 47 20.5 75s-6.83301 53.167 -20.5 75.5s-32.167 40.666 -55.5 54.999s-49.333 25.166 -78 32.499s-57.667 11 -87 11h-64v54l64 63h-250l63 -63
v-464zM267.001 186.002l-64 0.000976562v227h64c29.333 0 54.166 -11.333 74.499 -34s30.5 -49.334 30.5 -80.001c0 -30 -10.167 -56.333 -30.5 -79s-45.166 -34 -74.499 -34z" />
    <glyph glyph-name="germandbls" unicode="&#xdf;" horiz-adv-x="491" 
d="M313 436c0 -60 -28.999 -97.6699 -86.999 -113.003v-30c15.333 0 30 -3.66699 44 -11s26.5 -17.333 37.5 -30s19.667 -27 26 -43s9.5 -32.333 9.5 -49c0 -32.667 -11 -60.667 -33 -84s-50 -36.666 -84 -39.999v-35c6 -2 14.667 -4.5 26 -7.5s20.666 -4.5 27.999 -4.5
c20.667 0 42 4.5 64 13.5s42.333 21.333 61 37s33.5 34 44.5 55s16.5 42.833 16.5 65.5c0 36 -13 68.333 -39 97s-58.333 46.334 -97 53.001c30 10 55.333 27.333 76 52s31 49.334 31 74.001c0 28.667 -5.16699 53.5 -15.5 74.5s-24.166 38.167 -41.499 51.5
s-36.833 23.166 -58.5 29.499s-44.167 9.5 -67.5 9.5c-30.667 0 -58 -6 -82 -18s-44 -28.333 -60 -49s-28.167 -43.667 -36.5 -69s-12.5 -51.666 -12.5 -78.999v-339l-46 -47h170v428c0 15.333 0.666992 29.5 2 42.5s4 25.167 8 36.5s10.167 20.5 18.5 27.5
s19.166 10.5 32.499 10.5c18.667 0 34.167 -10.333 46.5 -31s18.5 -46.667 18.5 -78z" />
    <glyph glyph-name="agrave" unicode="&#xe0;" 
d="M130 607l-1 -0.000976562c-6.66699 -5.33301 -10 -12.666 -10 -21.999c0 -8 2.33301 -15.667 7 -23s10.667 -12.333 18 -15h-1l172 -70l-128 127c-8.66699 8 -19 12 -31 12c-10 0 -18.667 -3 -26 -9zM168 358.999c16 16 33.999 23.999 53.999 23.999
c18 0 31.333 -6.5 40 -19.5s13 -28.833 13 -47.5v-55h-63c-23.333 0 -46.333 -3.5 -69 -10.5s-42.834 -17.167 -60.501 -30.5s-31.667 -29.5 -42 -48.5s-15.5 -40.167 -15.5 -63.5c0 -16.667 3 -32.667 9 -48s14 -29 24 -41s21.333 -21.5 34 -28.5
s25.334 -10.5 38.001 -10.5c16.667 0 30.667 4 42 12l103 76v-68h183l-60 59v257c0 36.667 -16.667 65.834 -50 87.501s-73.333 32.5 -120 32.5c-30 0 -57.167 -2.5 -81.5 -7.5s-48.166 -15.5 -71.499 -31.5v-127zM232.999 212.998l42.001 -0.00195312v-91l-73 -54
c-6.66699 -3.33301 -12.334 -5 -17.001 -5c-10 0 -19.333 4.33301 -28 13s-13 19.334 -13 32.001c0 34.667 7.83301 60.834 23.5 78.501s37.5 26.5 65.5 26.5z" />
    <glyph glyph-name="aacute" unicode="&#xe1;" 
d="M350 583c0 8 -2.83301 15.5 -8.5 22.5s-15.5 10.5 -29.5 10.5c-12 0 -22 -4 -30 -12l-128 -127l172 70c16 6.66699 24 18.667 24 36zM168 359c16 16 33.999 23.999 53.999 23.999c18 0 31.333 -6.5 40 -19.5s13 -28.833 13 -47.5v-55h-63
c-23.333 0 -46.333 -3.5 -69 -10.5s-42.834 -17.167 -60.501 -30.5s-31.667 -29.5 -42 -48.5s-15.5 -40.167 -15.5 -63.5c0 -16.667 3 -32.667 9 -48s14 -29 24 -41s21.333 -21.5 34 -28.5s25.334 -10.5 38.001 -10.5c16.667 0 30.667 4 42 12l103 76v-68h183l-60 59v257
c0 36.667 -16.667 65.834 -50 87.501s-73.333 32.5 -120 32.5c-30 0 -57.167 -2.5 -81.5 -7.5s-48.166 -15.5 -71.499 -31.5v-127zM232.999 212.999l42.001 -0.00195312v-91l-73 -54c-6.66699 -3.33301 -12.334 -5 -17.001 -5c-10 0 -19.333 4.33301 -28 13
s-13 19.334 -13 32.001c0 34.667 7.83301 60.834 23.5 78.501s37.5 26.5 65.5 26.5z" />
    <glyph glyph-name="acircumflex" unicode="&#xe2;" 
d="M395 472l-161 161l-162 -161h18l144 61l143 -61h18zM168 359c16 16 33.999 23.999 53.999 23.999c18 0 31.333 -6.5 40 -19.5s13 -28.833 13 -47.5v-55h-63c-23.333 0 -46.333 -3.5 -69 -10.5s-42.834 -17.167 -60.501 -30.5s-31.667 -29.5 -42 -48.5
s-15.5 -40.167 -15.5 -63.5c0 -16.667 3 -32.667 9 -48s14 -29 24 -41s21.333 -21.5 34 -28.5s25.334 -10.5 38.001 -10.5c16.667 0 30.667 4 42 12l103 76v-68h183l-60 59v257c0 36.667 -16.667 65.834 -50 87.501s-73.333 32.5 -120 32.5c-30 0 -57.167 -2.5 -81.5 -7.5
s-48.166 -15.5 -71.499 -31.5v-127zM232.999 212.999l42.001 -0.00195312v-91l-73 -54c-6.66699 -3.33301 -12.334 -5 -17.001 -5c-10 0 -19.333 4.33301 -28 13s-13 19.334 -13 32.001c0 34.667 7.83301 60.834 23.5 78.501s37.5 26.5 65.5 26.5z" />
    <glyph glyph-name="atilde" unicode="&#xe3;" 
d="M151 484c6 10 11.501 17.333 16.501 22s11.5 7 19.5 7s17.333 -4 28 -12c7.33301 -5.33301 14.166 -9.5 20.499 -12.5s14.5 -4.5 24.5 -4.5c21.333 0 43 9 65 27s35 40.333 39 67h-20c-10.667 -19.333 -22.334 -29 -35.001 -29c-7.33301 0 -15.666 3.66699 -24.999 11
c-6.66699 6 -13.5 10.5 -20.5 13.5s-16.5 4.5 -28.5 4.5c-21.333 0 -43 -9 -65 -27s-35 -40.333 -39 -67h20zM168.001 359c16 16 33.999 23.999 53.999 23.999c18 0 31.333 -6.5 40 -19.5s13 -28.833 13 -47.5v-55h-63c-23.333 0 -46.333 -3.5 -69 -10.5
s-42.834 -17.167 -60.501 -30.5s-31.667 -29.5 -42 -48.5s-15.5 -40.167 -15.5 -63.5c0 -16.667 3 -32.667 9 -48s14 -29 24 -41s21.333 -21.5 34 -28.5s25.334 -10.5 38.001 -10.5c16.667 0 30.667 4 42 12l103 76v-68h183l-60 59v257c0 36.667 -16.667 65.834 -50 87.501
s-73.333 32.5 -120 32.5c-30 0 -57.167 -2.5 -81.5 -7.5s-48.166 -15.5 -71.499 -31.5v-127zM233 212.999l42.001 -0.00195312v-91l-73 -54c-6.66699 -3.33301 -12.334 -5 -17.001 -5c-10 0 -19.333 4.33301 -28 13s-13 19.334 -13 32.001
c0 34.667 7.83301 60.834 23.5 78.501s37.5 26.5 65.5 26.5z" />
    <glyph glyph-name="adieresis" unicode="&#xe4;" 
d="M366 534c0 15.333 -5.5 28.5 -16.5 39.5s-24.167 16.5 -39.5 16.5s-28.5 -5.5 -39.5 -16.5s-16.5 -24.167 -16.5 -39.5s5.5 -28.5 16.5 -39.5s24.167 -16.5 39.5 -16.5s28.5 5.5 39.5 16.5s16.5 24.167 16.5 39.5zM211 535c0 15.333 -5.5 28.5 -16.5 39.5
s-24.167 16.5 -39.5 16.5s-28.5 -5.5 -39.5 -16.5s-16.5 -24.167 -16.5 -39.5s5.5 -28.5 16.5 -39.5s24.167 -16.5 39.5 -16.5s28.5 5.5 39.5 16.5s16.5 24.167 16.5 39.5zM168 359c16 16 33.999 23.999 53.999 23.999c18 0 31.333 -6.5 40 -19.5s13 -28.833 13 -47.5v-55
h-63c-23.333 0 -46.333 -3.5 -69 -10.5s-42.834 -17.167 -60.501 -30.5s-31.667 -29.5 -42 -48.5s-15.5 -40.167 -15.5 -63.5c0 -16.667 3 -32.667 9 -48s14 -29 24 -41s21.333 -21.5 34 -28.5s25.334 -10.5 38.001 -10.5c16.667 0 30.667 4 42 12l103 76v-68h183l-60 59
v257c0 36.667 -16.667 65.834 -50 87.501s-73.333 32.5 -120 32.5c-30 0 -57.167 -2.5 -81.5 -7.5s-48.166 -15.5 -71.499 -31.5v-127zM232.999 212.999l42.001 -0.00195312v-91l-73 -54c-6.66699 -3.33301 -12.334 -5 -17.001 -5c-10 0 -19.333 4.33301 -28 13
s-13 19.334 -13 32.001c0 34.667 7.83301 60.834 23.5 78.501s37.5 26.5 65.5 26.5z" />
    <glyph glyph-name="aring" unicode="&#xe5;" 
d="M249 644c-23.333 0 -43.333 -8.33301 -60 -25s-25 -37 -25 -61c0 -23.333 8.33301 -43.5 25 -60.5s36.667 -25.5 60 -25.5c24 0 44.333 8.5 61 25.5s25 37.167 25 60.5c0 24 -8.33301 44.333 -25 61s-37 25 -61 25zM224 558c0 7.33301 2.5 13.5 7.5 18.5
s10.833 7.5 17.5 7.5c7.33301 0 13.5 -2.5 18.5 -7.5s7.5 -11.167 7.5 -18.5c0 -6.66699 -2.5 -12.667 -7.5 -18s-11.167 -8 -18.5 -8c-6.66699 0 -12.5 2.66699 -17.5 8s-7.5 11.333 -7.5 18zM168 359c16 16 33.999 23.999 53.999 23.999c18 0 31.333 -6.5 40 -19.5
s13 -28.833 13 -47.5v-55h-63c-23.333 0 -46.333 -3.5 -69 -10.5s-42.834 -17.167 -60.501 -30.5s-31.667 -29.5 -42 -48.5s-15.5 -40.167 -15.5 -63.5c0 -16.667 3 -32.667 9 -48s14 -29 24 -41s21.333 -21.5 34 -28.5s25.334 -10.5 38.001 -10.5c16.667 0 30.667 4 42 12
l103 76v-68h183l-60 59v257c0 36.667 -16.667 65.834 -50 87.501s-73.333 32.5 -120 32.5c-30 0 -57.167 -2.5 -81.5 -7.5s-48.166 -15.5 -71.499 -31.5v-127zM232.999 212.999l42.001 -0.00195312v-91l-73 -54c-6.66699 -3.33301 -12.334 -5 -17.001 -5
c-10 0 -19.333 4.33301 -28 13s-13 19.334 -13 32.001c0 34.667 7.83301 60.834 23.5 78.501s37.5 26.5 65.5 26.5z" />
    <glyph glyph-name="ae" unicode="&#xe6;" horiz-adv-x="675" 
d="M164 -8l126 92.999c21.333 -30 46 -53.833 74 -71.5s58 -26.5 90 -26.5c43.333 0 79.666 5.66699 108.999 17s58.666 33.333 87.999 66l-35 35c-6.66699 -12 -15.334 -22.167 -26.001 -30.5s-21.5 -14.666 -32.5 -18.999s-21.833 -7.5 -32.5 -9.5s-20.334 -3 -29.001 -3
c-46.667 0 -75.834 12.5 -87.501 37.5s-17.5 70.5 -17.5 136.5h271c0 32 -5.33301 61.833 -16 89.5s-25.5 51.5 -44.5 71.5s-41.167 35.333 -66.5 46s-52.333 16 -81 16c-20 0 -39.333 -3.5 -58 -10.5s-36 -16.5 -52 -28.5c-16 11.333 -34.667 20 -56 26
s-43.666 9 -66.999 9c-30 0 -57.167 -2.5 -81.5 -7.5s-48.166 -15.5 -71.499 -31.5v-127l93 89c16 16 33.667 24 53 24c18 0 31.5 -6.5 40.5 -19.5s13.5 -28.833 13.5 -47.5v-55h-64c-23.333 0 -46.166 -3.5 -68.499 -10.5s-42.333 -17.167 -60 -30.5
s-31.667 -29.5 -42 -48.5s-15.5 -40.167 -15.5 -63.5c0 -16.667 3 -32.667 9 -48s14 -29 24 -41s21.333 -21.5 34 -28.5s25.334 -10.5 38.001 -10.5c16.667 0 30.334 4 41.001 12zM225 212.999l43 -0.000976562v-91l-74 -54c-6.66699 -3.33301 -12 -5 -16 -5
c-10.667 0 -20.167 4.33301 -28.5 13s-12.5 19.334 -12.5 32.001c0 34 7.83301 60 23.5 78s37.167 27 64.5 27zM391 269.998c0 33.333 5 61.333 15 84s26 34 48 34c18.667 0 35.667 -9.5 51 -28.5s23 -37.833 23 -56.5c0 -13.333 -3.33301 -24.333 -10 -33h-127z" />
    <glyph glyph-name="ccedilla" unicode="&#xe7;" horiz-adv-x="419" 
d="M167 0l-71.002 -70.999h38c10.667 0 20 -3.16699 28 -9.5s12 -14.5 12 -24.5c0 -11.333 -3.83301 -19.833 -11.5 -25.5s-17.5 -8.5 -29.5 -8.5h-15v-24h15c33.333 0 63.833 6.66699 91.5 20s41.5 31.666 41.5 54.999c0 15.333 -6.16699 28.333 -18.5 39
s-27.166 16.667 -44.499 18l20 18h10c35.333 0 65 4.66699 89 14s48.667 25.333 74 48l-34 34c-13.333 -15.333 -28 -26 -44 -32s-32.333 -9 -49 -9c-36 0 -61.667 13.333 -77 40s-23 70 -23 130c0 30.667 0.5 55.5 1.5 74.5s3.83301 35.5 8.5 49.5
c9.33301 31.333 29.333 47 60 47c16.667 0 29.334 -1.5 38.001 -4.5s18 -9.5 28 -19.5l89 -89v127c-25.333 16.667 -49.5 27.334 -72.5 32.001s-52.5 7 -88.5 7c-27.333 0 -53.5 -6 -78.5 -18s-47.333 -28.667 -67 -50s-35 -45.5 -46 -72.5s-16.5 -54.833 -16.5 -83.5
c0 -45.333 13.667 -87.833 41 -127.5s61 -67.834 101 -84.501z" />
    <glyph glyph-name="egrave" unicode="&#xe8;" horiz-adv-x="465" 
d="M115 607l-1 -0.000976562c-6.66699 -5.33301 -10 -12.666 -10 -21.999c0 -8 2.33301 -15.667 7 -23s10.667 -12.333 18 -15h-1l172 -70l-128 127c-8.66699 8 -19 12 -31 12c-10 0 -18.667 -3 -26 -9zM440 216.999c0 33.333 -5.3291 63.833 -15.9961 91.5
s-25.5 51.334 -44.5 71.001s-41 34.667 -66 45s-51.833 15.5 -80.5 15.5c-29.333 0 -56.833 -6 -82.5 -18s-47.834 -28.833 -66.501 -50.5s-33.167 -46.334 -43.5 -74.001s-15.5 -56.167 -15.5 -85.5s5.33301 -57.5 16 -84.5s25.667 -51.167 45 -72.5s41.666 -38 66.999 -50
s52 -18 80 -18c50.667 0 90.667 7.5 120 22.5s54.666 35.167 75.999 60.5l-32 33l-1 -1c-12 -16.667 -26.833 -30.667 -44.5 -42s-43.5 -17 -77.5 -17c-46.667 0 -75.834 12.5 -87.501 37.5s-17.5 70.5 -17.5 136.5h271zM169.004 268.999c0 33.333 5.16699 61.5 15.5 84.5
s26.5 34.5 48.5 34.5c18.667 0 35.667 -9.5 51 -28.5s23 -37.833 23 -56.5c0 -12.667 -3.33301 -24 -10 -34h-128z" />
    <glyph glyph-name="eacute" unicode="&#xe9;" horiz-adv-x="465" 
d="M375 583c0 8 -2.83301 15.5 -8.5 22.5s-15.5 10.5 -29.5 10.5c-12 0 -22 -4 -30 -12l-128 -127l172 70c16 6.66699 24 18.667 24 36zM440 217c0 33.333 -5.3291 63.833 -15.9961 91.5s-25.5 51.334 -44.5 71.001s-41 34.667 -66 45s-51.833 15.5 -80.5 15.5
c-29.333 0 -56.833 -6 -82.5 -18s-47.834 -28.833 -66.501 -50.5s-33.167 -46.334 -43.5 -74.001s-15.5 -56.167 -15.5 -85.5s5.33301 -57.5 16 -84.5s25.667 -51.167 45 -72.5s41.666 -38 66.999 -50s52 -18 80 -18c50.667 0 90.667 7.5 120 22.5
s54.666 35.167 75.999 60.5l-32 33l-1 -1c-12 -16.667 -26.833 -30.667 -44.5 -42s-43.5 -17 -77.5 -17c-46.667 0 -75.834 12.5 -87.501 37.5s-17.5 70.5 -17.5 136.5h271zM169.004 269c0 33.333 5.16699 61.5 15.5 84.5s26.5 34.5 48.5 34.5
c18.667 0 35.667 -9.5 51 -28.5s23 -37.833 23 -56.5c0 -12.667 -3.33301 -24 -10 -34h-128z" />
    <glyph glyph-name="ecircumflex" unicode="&#xea;" horiz-adv-x="465" 
d="M411 472l-161 161l-162 -161h18l144 61l143 -61h18zM440 217c0 33.333 -5.3291 63.833 -15.9961 91.5s-25.5 51.334 -44.5 71.001s-41 34.667 -66 45s-51.833 15.5 -80.5 15.5c-29.333 0 -56.833 -6 -82.5 -18s-47.834 -28.833 -66.501 -50.5
s-33.167 -46.334 -43.5 -74.001s-15.5 -56.167 -15.5 -85.5s5.33301 -57.5 16 -84.5s25.667 -51.167 45 -72.5s41.666 -38 66.999 -50s52 -18 80 -18c50.667 0 90.667 7.5 120 22.5s54.666 35.167 75.999 60.5l-32 33l-1 -1c-12 -16.667 -26.833 -30.667 -44.5 -42
s-43.5 -17 -77.5 -17c-46.667 0 -75.834 12.5 -87.501 37.5s-17.5 70.5 -17.5 136.5h271zM169.004 269c0 33.333 5.16699 61.5 15.5 84.5s26.5 34.5 48.5 34.5c18.667 0 35.667 -9.5 51 -28.5s23 -37.833 23 -56.5c0 -12.667 -3.33301 -24 -10 -34h-128z" />
    <glyph glyph-name="edieresis" unicode="&#xeb;" horiz-adv-x="465" 
d="M378 534c0 15.333 -5.5 28.5 -16.5 39.5s-24.167 16.5 -39.5 16.5s-28.5 -5.5 -39.5 -16.5s-16.5 -24.167 -16.5 -39.5s5.5 -28.5 16.5 -39.5s24.167 -16.5 39.5 -16.5s28.5 5.5 39.5 16.5s16.5 24.167 16.5 39.5zM223 535c0 15.333 -5.5 28.5 -16.5 39.5
s-24.167 16.5 -39.5 16.5s-28.5 -5.5 -39.5 -16.5s-16.5 -24.167 -16.5 -39.5s5.5 -28.5 16.5 -39.5s24.167 -16.5 39.5 -16.5s28.5 5.5 39.5 16.5s16.5 24.167 16.5 39.5zM440 217c0 33.333 -5.3291 63.833 -15.9961 91.5s-25.5 51.334 -44.5 71.001s-41 34.667 -66 45
s-51.833 15.5 -80.5 15.5c-29.333 0 -56.833 -6 -82.5 -18s-47.834 -28.833 -66.501 -50.5s-33.167 -46.334 -43.5 -74.001s-15.5 -56.167 -15.5 -85.5s5.33301 -57.5 16 -84.5s25.667 -51.167 45 -72.5s41.666 -38 66.999 -50s52 -18 80 -18c50.667 0 90.667 7.5 120 22.5
s54.666 35.167 75.999 60.5l-32 33l-1 -1c-12 -16.667 -26.833 -30.667 -44.5 -42s-43.5 -17 -77.5 -17c-46.667 0 -75.834 12.5 -87.501 37.5s-17.5 70.5 -17.5 136.5h271zM169.004 269c0 33.333 5.16699 61.5 15.5 84.5s26.5 34.5 48.5 34.5
c18.667 0 35.667 -9.5 51 -28.5s23 -37.833 23 -56.5c0 -12.667 -3.33301 -24 -10 -34h-128z" />
    <glyph glyph-name="igrave" unicode="&#xec;" horiz-adv-x="271" 
d="M44 607l-1 -0.000976562c-6.66699 -5.33301 -10 -12.666 -10 -21.999c0 -8 2.33301 -15.667 7 -23s10.667 -12.333 18 -15h-1l172 -70l-128 127c-8.66699 8 -19 12 -31 12c-10 0 -18.667 -3 -26 -9zM265 -0.000976562l-59 59v372l-181 -62l58 -57v-253l-60 -59h242z" />
    <glyph glyph-name="iacute" unicode="&#xed;" horiz-adv-x="271" 
d="M270 583c0 8 -2.83301 15.5 -8.5 22.5s-15.5 10.5 -29.5 10.5c-12 0 -22 -4 -30 -12l-128 -127l172 70c16 6.66699 24 18.667 24 36zM265 0l-59 59v372l-181 -62l58 -57v-253l-60 -59h242z" />
    <glyph glyph-name="icircumflex" unicode="&#xee;" horiz-adv-x="271" 
d="M315 472l-161 161l-162 -161h18l144 61l143 -61h18zM265 0l-59 59v372l-181 -62l58 -57v-253l-60 -59h242z" />
    <glyph glyph-name="idieresis" unicode="&#xef;" horiz-adv-x="271" 
d="M286 534c0 15.333 -5.5 28.5 -16.5 39.5s-24.167 16.5 -39.5 16.5s-28.5 -5.5 -39.5 -16.5s-16.5 -24.167 -16.5 -39.5s5.5 -28.5 16.5 -39.5s24.167 -16.5 39.5 -16.5s28.5 5.5 39.5 16.5s16.5 24.167 16.5 39.5zM131 535c0 15.333 -5.5 28.5 -16.5 39.5
s-24.167 16.5 -39.5 16.5s-28.5 -5.5 -39.5 -16.5s-16.5 -24.167 -16.5 -39.5s5.5 -28.5 16.5 -39.5s24.167 -16.5 39.5 -16.5s28.5 5.5 39.5 16.5s16.5 24.167 16.5 39.5zM265 0l-59 59v372l-181 -62l58 -57v-253l-60 -59h242z" />
    <glyph glyph-name="eth" unicode="&#xf0;" horiz-adv-x="483" 
d="M233 36c-24 0 -42.668 12.6641 -56.001 37.9971s-20 56.333 -20 93c0 18.667 0.5 35.334 1.5 50.001s4 29.334 9 44.001s13 26.834 24 36.501s25.5 14.5 43.5 14.5c18.667 0 37.667 -6.33301 57 -19s31.333 -27.667 36 -45c0.666992 -1.33301 1.33398 -5 2.00098 -11
s1 -14.667 1 -26c0 -116.667 -32.667 -175 -98 -175zM237.999 513.997l-113.999 -91.999h95l54 43c22 -40.667 38 -92.667 48 -156c-12 18.667 -26.833 33.334 -44.5 44.001s-38.834 16 -63.501 16c-22.667 0 -45.167 -4.33301 -67.5 -13s-42.666 -21.167 -60.999 -37.5
s-32.833 -36.333 -43.5 -60s-16 -49.834 -16 -78.501c0 -27.333 6.33301 -52.833 19 -76.5s29.667 -44.334 51 -62.001s44.166 -31.167 68.499 -40.5s47.5 -14 69.5 -14c68 0 121.833 22 161.5 66s59.5 100.667 59.5 170c0 54.667 -10 108.667 -30 162s-48 98.333 -84 135
l102 83h-95l-53 -43c-42 29.333 -88 44 -138 44c-8.66699 0 -17 -0.333008 -25 -1l-10 -30c1.33301 -0.666992 5 -1.33398 11 -2.00098c18 -4 35.667 -9.66699 53 -17s35 -20.666 53 -39.999z" />
    <glyph glyph-name="ntilde" unicode="&#xf1;" horiz-adv-x="521" 
d="M205 484c6 10 11.501 17.333 16.501 22s11.5 7 19.5 7s17.333 -4 28 -12c7.33301 -5.33301 14.166 -9.5 20.499 -12.5s14.5 -4.5 24.5 -4.5c21.333 0 43 9 65 27s35 40.333 39 67h-20c-10.667 -19.333 -22.334 -29 -35.001 -29c-7.33301 0 -15.666 3.66699 -24.999 11
c-6.66699 6 -13.5 10.5 -20.5 13.5s-16.5 4.5 -28.5 4.5c-21.333 0 -43 -9 -65 -27s-35 -40.333 -39 -67h20zM227.001 385l-35.998 -36.001v82l-181 -62l58 -57v-253l-60 -59h242l-59 59v226l41 41c24 24.667 45.333 37 64 37c14 0 24.5 -4.5 31.5 -13.5
s10.5 -18.833 10.5 -29.5v-320h183l-59 59v274c0 24.667 -11 48.834 -33 72.501s-51 35.5 -87 35.5c-16.667 0 -34.834 -4.33301 -54.501 -13s-39.834 -23 -60.501 -43z" />
    <glyph glyph-name="ograve" unicode="&#xf2;" horiz-adv-x="507" 
d="M165 607l-1 -0.000976562c-6.66699 -5.33301 -10 -12.666 -10 -21.999c0 -8 2.33301 -15.667 7 -23s10.667 -12.333 18 -15h-1l172 -70l-128 127c-8.66699 8 -19 12 -31 12c-10 0 -18.667 -3 -26 -9zM25 211.999c0 -30.667 5.83301 -60 17.5 -88s28.167 -52.667 49.5 -74
s45.833 -37.833 73.5 -49.5s56.834 -17.5 87.501 -17.5c31.333 0 60.833 5.83301 88.5 17.5s52.167 28.167 73.5 49.5s37.833 46 49.5 74s17.5 57.333 17.5 88s-5.83301 60 -17.5 88s-28.167 52.5 -49.5 73.5s-45.833 37.333 -73.5 49s-57.167 17.5 -88.5 17.5
c-30.667 0 -59.834 -5.83301 -87.501 -17.5s-52.167 -28 -73.5 -49s-37.833 -45.5 -49.5 -73.5s-17.5 -57.333 -17.5 -88zM253 31.999c-18 0 -32.667 5.33301 -44 16s-19.833 24.834 -25.5 42.501s-9.5 36.5 -11.5 56.5s-3 41.667 -3 65s1 45 3 65s5.83301 38.833 11.5 56.5
s14.167 31.834 25.5 42.501s26 16 44 16s32.667 -5.33301 44 -16s20 -24.834 26 -42.501s10 -36.5 12 -56.5s3 -41.667 3 -65s-1 -45 -3 -65s-6 -38.833 -12 -56.5s-14.667 -31.834 -26 -42.501s-26 -16 -44 -16z" />
    <glyph glyph-name="oacute" unicode="&#xf3;" horiz-adv-x="507" 
d="M383 583c0 8 -2.83301 15.5 -8.5 22.5s-15.5 10.5 -29.5 10.5c-12 0 -22 -4 -30 -12l-128 -127l172 70c16 6.66699 24 18.667 24 36zM25 212c0 -30.667 5.83301 -60 17.5 -88s28.167 -52.667 49.5 -74s45.833 -37.833 73.5 -49.5s56.834 -17.5 87.501 -17.5
c31.333 0 60.833 5.83301 88.5 17.5s52.167 28.167 73.5 49.5s37.833 46 49.5 74s17.5 57.333 17.5 88s-5.83301 60 -17.5 88s-28.167 52.5 -49.5 73.5s-45.833 37.333 -73.5 49s-57.167 17.5 -88.5 17.5c-30.667 0 -59.834 -5.83301 -87.501 -17.5s-52.167 -28 -73.5 -49
s-37.833 -45.5 -49.5 -73.5s-17.5 -57.333 -17.5 -88zM253 32c-18 0 -32.667 5.33301 -44 16s-19.833 24.834 -25.5 42.501s-9.5 36.5 -11.5 56.5s-3 41.667 -3 65s1 45 3 65s5.83301 38.833 11.5 56.5s14.167 31.834 25.5 42.501s26 16 44 16s32.667 -5.33301 44 -16
s20 -24.834 26 -42.501s10 -36.5 12 -56.5s3 -41.667 3 -65s-1 -45 -3 -65s-6 -38.833 -12 -56.5s-14.667 -31.834 -26 -42.501s-26 -16 -44 -16z" />
    <glyph glyph-name="ocircumflex" unicode="&#xf4;" horiz-adv-x="507" 
d="M428 472l-161 161l-162 -161h18l144 61l143 -61h18zM25 212c0 -30.667 5.83301 -60 17.5 -88s28.167 -52.667 49.5 -74s45.833 -37.833 73.5 -49.5s56.834 -17.5 87.501 -17.5c31.333 0 60.833 5.83301 88.5 17.5s52.167 28.167 73.5 49.5s37.833 46 49.5 74
s17.5 57.333 17.5 88s-5.83301 60 -17.5 88s-28.167 52.5 -49.5 73.5s-45.833 37.333 -73.5 49s-57.167 17.5 -88.5 17.5c-30.667 0 -59.834 -5.83301 -87.501 -17.5s-52.167 -28 -73.5 -49s-37.833 -45.5 -49.5 -73.5s-17.5 -57.333 -17.5 -88zM253 32
c-18 0 -32.667 5.33301 -44 16s-19.833 24.834 -25.5 42.501s-9.5 36.5 -11.5 56.5s-3 41.667 -3 65s1 45 3 65s5.83301 38.833 11.5 56.5s14.167 31.834 25.5 42.501s26 16 44 16s32.667 -5.33301 44 -16s20 -24.834 26 -42.501s10 -36.5 12 -56.5s3 -41.667 3 -65
s-1 -45 -3 -65s-6 -38.833 -12 -56.5s-14.667 -31.834 -26 -42.501s-26 -16 -44 -16z" />
    <glyph glyph-name="otilde" unicode="&#xf5;" horiz-adv-x="507" 
d="M176 484c6 10 11.501 17.333 16.501 22s11.5 7 19.5 7s17.333 -4 28 -12c7.33301 -5.33301 14.166 -9.5 20.499 -12.5s14.5 -4.5 24.5 -4.5c21.333 0 43 9 65 27s35 40.333 39 67h-20c-10.667 -19.333 -22.334 -29 -35.001 -29c-7.33301 0 -15.666 3.66699 -24.999 11
c-6.66699 6 -13.5 10.5 -20.5 13.5s-16.5 4.5 -28.5 4.5c-21.333 0 -43 -9 -65 -27s-35 -40.333 -39 -67h20zM25.001 212c0 -30.667 5.83301 -60 17.5 -88s28.167 -52.667 49.5 -74s45.833 -37.833 73.5 -49.5s56.834 -17.5 87.501 -17.5c31.333 0 60.833 5.83301 88.5 17.5
s52.167 28.167 73.5 49.5s37.833 46 49.5 74s17.5 57.333 17.5 88s-5.83301 60 -17.5 88s-28.167 52.5 -49.5 73.5s-45.833 37.333 -73.5 49s-57.167 17.5 -88.5 17.5c-30.667 0 -59.834 -5.83301 -87.501 -17.5s-52.167 -28 -73.5 -49s-37.833 -45.5 -49.5 -73.5
s-17.5 -57.333 -17.5 -88zM253.001 32c-18 0 -32.667 5.33301 -44 16s-19.833 24.834 -25.5 42.501s-9.5 36.5 -11.5 56.5s-3 41.667 -3 65s1 45 3 65s5.83301 38.833 11.5 56.5s14.167 31.834 25.5 42.501s26 16 44 16s32.667 -5.33301 44 -16s20 -24.834 26 -42.501
s10 -36.5 12 -56.5s3 -41.667 3 -65s-1 -45 -3 -65s-6 -38.833 -12 -56.5s-14.667 -31.834 -26 -42.501s-26 -16 -44 -16z" />
    <glyph glyph-name="odieresis" unicode="&#xf6;" horiz-adv-x="507" 
d="M396 534c0 15.333 -5.5 28.5 -16.5 39.5s-24.167 16.5 -39.5 16.5s-28.5 -5.5 -39.5 -16.5s-16.5 -24.167 -16.5 -39.5s5.5 -28.5 16.5 -39.5s24.167 -16.5 39.5 -16.5s28.5 5.5 39.5 16.5s16.5 24.167 16.5 39.5zM241 535c0 15.333 -5.5 28.5 -16.5 39.5
s-24.167 16.5 -39.5 16.5s-28.5 -5.5 -39.5 -16.5s-16.5 -24.167 -16.5 -39.5s5.5 -28.5 16.5 -39.5s24.167 -16.5 39.5 -16.5s28.5 5.5 39.5 16.5s16.5 24.167 16.5 39.5zM25 212c0 -30.667 5.83301 -60 17.5 -88s28.167 -52.667 49.5 -74s45.833 -37.833 73.5 -49.5
s56.834 -17.5 87.501 -17.5c31.333 0 60.833 5.83301 88.5 17.5s52.167 28.167 73.5 49.5s37.833 46 49.5 74s17.5 57.333 17.5 88s-5.83301 60 -17.5 88s-28.167 52.5 -49.5 73.5s-45.833 37.333 -73.5 49s-57.167 17.5 -88.5 17.5
c-30.667 0 -59.834 -5.83301 -87.501 -17.5s-52.167 -28 -73.5 -49s-37.833 -45.5 -49.5 -73.5s-17.5 -57.333 -17.5 -88zM253 32c-18 0 -32.667 5.33301 -44 16s-19.833 24.834 -25.5 42.501s-9.5 36.5 -11.5 56.5s-3 41.667 -3 65s1 45 3 65s5.83301 38.833 11.5 56.5
s14.167 31.834 25.5 42.501s26 16 44 16s32.667 -5.33301 44 -16s20 -24.834 26 -42.501s10 -36.5 12 -56.5s3 -41.667 3 -65s-1 -45 -3 -65s-6 -38.833 -12 -56.5s-14.667 -31.834 -26 -42.501s-26 -16 -44 -16z" />
    <glyph glyph-name="divide" unicode="&#xf7;" horiz-adv-x="0" 
 />
    <glyph glyph-name="oslash" unicode="&#xf8;" horiz-adv-x="507" 
d="M28 212c0 -37.333 8.33203 -72.167 24.999 -104.5s39.334 -58.833 68.001 -79.5l-38 -70h55l25 45c32 -13.333 63 -20 93 -20c30.667 0 60 5.83301 88 17.5s52.5 28.167 73.5 49.5s37.333 46 49 74s17.5 57.333 17.5 88c0 38 -8.66699 73.5 -26 106.5s-41 59.5 -71 79.5
l38 67h-60l-23 -42c-28 11.333 -56.667 17 -86 17c-30.667 0 -60 -5.83301 -88 -17.5s-52.5 -28 -73.5 -49s-37.333 -45.5 -49 -73.5s-17.5 -57.333 -17.5 -88zM197.999 62.999l55.502 98l58.5 104.5l21 37.5c4.66699 -27.333 7 -57.666 7 -90.999c0 -23.333 -1 -45 -3 -65
s-5.83301 -38.833 -11.5 -56.5s-14.167 -31.834 -25.5 -42.501s-26 -16 -44 -16c-12.667 0 -23.334 2.66699 -32.001 8s-17.334 13 -26.001 23zM310.001 366.999l-26 -46.501l-31 -56.5l-76 -136c-3.33301 22.667 -5 50.667 -5 84c0 23.333 1 45 3 65
s5.83301 38.833 11.5 56.5s14.167 31.834 25.5 42.501s26 16 44 16c20.667 0 38.667 -8.33301 54 -25z" />
    <glyph glyph-name="ugrave" unicode="&#xf9;" horiz-adv-x="494" 
d="M157 603l-1 -0.000976562c-6.66699 -5.33301 -10 -12.666 -10 -21.999c0 -8 2.33301 -15.667 7 -23s10.667 -12.333 18 -15h-1l172 -70l-128 127c-8.66699 8 -19 12 -31 12c-10 0 -18.667 -3 -26 -9zM0 368.999l57.999 -56.999v-225c0 -23.333 10.167 -45.833 30.5 -67.5
s46.833 -32.5 79.5 -32.5c16.667 0 33.834 3.66699 51.501 11s36.5 20.666 56.5 39.999l36 36v-74h182l-59 59v372l-181 -62l58 -57v-174l-41 -40c-20.667 -21.333 -39 -32 -55 -32c-12 0 -20.833 4 -26.5 12s-8.5 16.333 -8.5 25v328z" />
    <glyph glyph-name="uacute" unicode="&#xfa;" horiz-adv-x="494" 
d="M400 579c0 8 -2.83301 15.5 -8.5 22.5s-15.5 10.5 -29.5 10.5c-12 0 -22 -4 -30 -12l-128 -127l172 70c16 6.66699 24 18.667 24 36zM0 369l57.999 -56.999v-225c0 -23.333 10.167 -45.833 30.5 -67.5s46.833 -32.5 79.5 -32.5c16.667 0 33.834 3.66699 51.501 11
s36.5 20.666 56.5 39.999l36 36v-74h182l-59 59v372l-181 -62l58 -57v-174l-41 -40c-20.667 -21.333 -39 -32 -55 -32c-12 0 -20.833 4 -26.5 12s-8.5 16.333 -8.5 25v328z" />
    <glyph glyph-name="ucircumflex" unicode="&#xfb;" horiz-adv-x="494" 
d="M432 472l-161 161l-162 -161h18l144 61l143 -61h18zM0 369l57.999 -56.999v-225c0 -23.333 10.167 -45.833 30.5 -67.5s46.833 -32.5 79.5 -32.5c16.667 0 33.834 3.66699 51.501 11s36.5 20.666 56.5 39.999l36 36v-74h182l-59 59v372l-181 -62l58 -57v-174l-41 -40
c-20.667 -21.333 -39 -32 -55 -32c-12 0 -20.833 4 -26.5 12s-8.5 16.333 -8.5 25v328z" />
    <glyph glyph-name="udieresis" unicode="&#xfc;" horiz-adv-x="494" 
d="M394 534c0 15.333 -5.5 28.5 -16.5 39.5s-24.167 16.5 -39.5 16.5s-28.5 -5.5 -39.5 -16.5s-16.5 -24.167 -16.5 -39.5s5.5 -28.5 16.5 -39.5s24.167 -16.5 39.5 -16.5s28.5 5.5 39.5 16.5s16.5 24.167 16.5 39.5zM239 535c0 15.333 -5.5 28.5 -16.5 39.5
s-24.167 16.5 -39.5 16.5s-28.5 -5.5 -39.5 -16.5s-16.5 -24.167 -16.5 -39.5s5.5 -28.5 16.5 -39.5s24.167 -16.5 39.5 -16.5s28.5 5.5 39.5 16.5s16.5 24.167 16.5 39.5zM0 369l57.999 -56.999v-225c0 -23.333 10.167 -45.833 30.5 -67.5s46.833 -32.5 79.5 -32.5
c16.667 0 33.834 3.66699 51.501 11s36.5 20.666 56.5 39.999l36 36v-74h182l-59 59v372l-181 -62l58 -57v-174l-41 -40c-20.667 -21.333 -39 -32 -55 -32c-12 0 -20.833 4 -26.5 12s-8.5 16.333 -8.5 25v328z" />
    <glyph glyph-name="yacute" unicode="&#xfd;" 
d="M380 585c0 8 -2.83301 15.5 -8.5 22.5s-15.5 10.5 -29.5 10.5c-12 0 -22 -4 -30 -12l-128 -127l172 70c16 6.66699 24 18.667 24 36zM51 356l152 -355l-44 -109l-81 -59h205l-58 59l191 464l59 59h-183l58 -58l-82 -202l-89 202l59 58h-246z" />
    <glyph glyph-name="thorn" unicode="&#xfe;" horiz-adv-x="498" 
d="M183 308c5.33301 20.667 15.333 37.168 30 49.501s32.667 18.5 54 18.5c25.333 0 42.166 -12.833 50.499 -38.5s12.5 -67.167 12.5 -124.5s-4.16699 -99 -12.5 -125s-25.166 -39 -50.499 -39c-21.333 0 -39.333 6.16699 -54 18.5s-24.667 29.166 -30 50.499v190z
M59 514.001v-622.001l-59 -59h242l-59 59v160c13.333 -19.333 30.666 -35.666 51.999 -48.999s44 -20 68 -20c26 0 49.667 6.83301 71 20.5s39.333 31.667 54 54s26 47.166 34 74.499s12 54.333 12 81s-4 53.5 -12 80.5s-19.5 51.833 -34.5 74.5s-33 40.667 -54 54
s-44.5 20 -70.5 20c-24 0 -46.667 -6.66699 -68 -20s-38.666 -29.666 -51.999 -48.999v260l-181 -61z" />
    <glyph glyph-name="ydieresis" unicode="&#xff;" 
d="M396 534c0 15.333 -5.5 28.5 -16.5 39.5s-24.167 16.5 -39.5 16.5s-28.5 -5.5 -39.5 -16.5s-16.5 -24.167 -16.5 -39.5s5.5 -28.5 16.5 -39.5s24.167 -16.5 39.5 -16.5s28.5 5.5 39.5 16.5s16.5 24.167 16.5 39.5zM241 535c0 15.333 -5.5 28.5 -16.5 39.5
s-24.167 16.5 -39.5 16.5s-28.5 -5.5 -39.5 -16.5s-16.5 -24.167 -16.5 -39.5s5.5 -28.5 16.5 -39.5s24.167 -16.5 39.5 -16.5s28.5 5.5 39.5 16.5s16.5 24.167 16.5 39.5zM51 356l152 -355l-44 -109l-81 -59h205l-58 59l191 464l59 59h-183l58 -58l-82 -202l-89 202l59 58
h-246z" />
    <glyph glyph-name="OE" unicode="&#x152;" horiz-adv-x="779" 
d="M25 295c0 -39.333 6.16699 -77.668 18.5 -115.001s29.833 -70.833 52.5 -100.5s50 -53.167 82 -70.5s67 -26 105 -26c24.667 0 46.167 3.33301 64.5 10s38.5 17.667 60.5 33v-26h353v141l-80 -80h-149v222h103l63 -63v188l-63 -64h-103v185h149l80 -80v141h-353v-26
c-22 15.333 -42.167 26.333 -60.5 33s-39.833 10 -64.5 10c-38 0 -72.833 -8.66699 -104.5 -26s-59 -40.833 -82 -70.5s-40.667 -63.167 -53 -100.5s-18.5 -75.666 -18.5 -114.999zM283 43.998c-24.667 0 -44.834 7.50195 -60.501 22.502s-27.334 34.667 -35.001 59
s-12.667 50.166 -15 77.499s-3.5 58 -3.5 92s1.16699 64.667 3.5 92s7.33301 53.166 15 77.499s19.334 44 35.001 59s35.834 22.5 60.501 22.5c25.333 0 46.333 -7.5 63 -22.5s29.5 -34.667 38.5 -59s15.167 -50.833 18.5 -79.5s5 -58.667 5 -90s-1.66699 -61.333 -5 -90
s-9.5 -55.167 -18.5 -79.5s-21.833 -44 -38.5 -59s-37.667 -22.5 -63 -22.5z" />
    <glyph glyph-name="oe" unicode="&#x153;" horiz-adv-x="771" 
d="M253 -17c28 0 55.3291 5.16699 81.9961 15.5s51 25.833 73 46.5c23.333 -20 45.5 -34.667 66.5 -44s44.5 -14 70.5 -14c42.667 0 79.5 6.16699 110.5 18.5s59.833 33.833 86.5 64.5l-35 35c-11.333 -19.333 -28 -34.333 -50 -45s-45.667 -16 -71 -16
c-13.333 0 -26.666 1.33301 -39.999 4c-14.667 3.33301 -26.5 9.83301 -35.5 19.5s-15.5 22 -19.5 37s-6.5 31.167 -7.5 48.5s-1.5 38.666 -1.5 63.999h271c0 33.333 -5.33301 63.833 -16 91.5s-25.667 51.334 -45 71.001s-41.666 34.667 -66.999 45s-52 15.5 -80 15.5
c-23.333 0 -47.666 -5 -72.999 -15s-47.666 -24.667 -66.999 -44c-44 39.333 -94.667 59 -152 59c-30.667 0 -59.834 -5.83301 -87.501 -17.5s-52.167 -28 -73.5 -49s-37.833 -45.5 -49.5 -73.5s-17.5 -57.333 -17.5 -88s5.83301 -60 17.5 -88s28.167 -52.667 49.5 -74
s45.833 -37.833 73.5 -49.5s56.834 -17.5 87.501 -17.5zM481.996 270c0 32 5 59.667 15 83s26 35 48 35c19.333 0 36.333 -9.16699 51 -27.5s22 -37.833 22 -58.5c0 -12 -3 -22.667 -9 -32h-127zM252.996 32c-18 0 -32.667 5.33301 -44 16s-19.833 24.834 -25.5 42.501
s-9.5 36.5 -11.5 56.5s-3 41.667 -3 65s1 45 3 65s5.83301 38.833 11.5 56.5s14.167 31.834 25.5 42.501s26 16 44 16s32.667 -5.33301 44 -16s20 -24.834 26 -42.501s10 -36.5 12 -56.5s3 -41.667 3 -65s-1 -45 -3 -65s-6 -38.833 -12 -56.5s-14.667 -31.834 -26 -42.501
s-26 -16 -44 -16z" />
    <glyph glyph-name="Scaron" unicode="&#x160;" horiz-adv-x="421" 
d="M85 757l133 -132l132 132h-18l-114 -61l-114 61h-19zM403 170c0 32.667 -7.33301 60.335 -22 83.002s-32.334 40.334 -53.001 53.001l-142 87c-18.667 12 -32.5 25.333 -41.5 40s-13.5 29 -13.5 43c0 16 7.16699 31.333 21.5 46s32.833 22 55.5 22
c15.333 0 30.333 -4.66699 45 -14l69 -74l63 112l-129 22c-8 1.33301 -17.333 2.5 -28 3.5s-19.667 1.5 -27 1.5c-30.667 0 -57.5 -4.5 -80.5 -13.5s-42 -21.167 -57 -36.5s-26 -32.5 -33 -51.5s-10.5 -38.833 -10.5 -59.5c0 -10 1.33301 -21 4 -33s7.33398 -25 14.001 -39
s16.167 -27.833 28.5 -41.5s27.5 -25.834 45.5 -36.501l141 -87c10 -6.66699 18.333 -15.334 25 -26.001s10 -24.334 10 -41.001c0 -29.333 -9.16699 -52 -27.5 -68s-38.833 -24 -61.5 -24c-20 0 -38 6 -54 18l-74 83l-63 -121l134 -22c17.333 -3.33301 38.333 -5 63 -5
c34 0 63.833 5 89.5 15s46.5 23.5 62.5 40.5s27.667 36 35 57s11 43.167 11 66.5z" />
    <glyph glyph-name="scaron" unicode="&#x161;" horiz-adv-x="354" 
d="M63 611l133 -132l132 132h-18l-114 -61l-114 61h-19zM287 232l-142.001 78.998c-9.33301 5.33301 -15.333 10.666 -18 15.999s-4 10 -4 14c0 16.667 7 30.334 21 41.001s28.667 16 44 16c14.667 0 25.334 -4.33301 32.001 -13l57 -74l63 90l-117 35
c-17.333 4.66699 -34 7 -50 7c-40 0 -74.667 -12.667 -104 -38s-44 -61.333 -44 -108c0 -19.333 4.16699 -37.833 12.5 -55.5s22.166 -31.5 41.499 -41.5l154 -79c4 -2.66699 7.5 -6 10.5 -10s4.5 -10 4.5 -18c0 -19.333 -7.5 -35.833 -22.5 -49.5
s-30.833 -20.5 -47.5 -20.5c-10 0 -18.5 1.83301 -25.5 5.5s-11.833 6.83398 -14.5 9.50098l-61 79l-68 -90l125 -40c4 -1.33301 11.167 -2.83301 21.5 -4.5s21.5 -2.5 33.5 -2.5c44.667 0 81.334 13.5 110.001 40.5s43 62.5 43 106.5c0 26 -5.33301 47.833 -16 65.5
s-23.667 30.834 -39 39.501z" />
    <glyph glyph-name="Ydieresis" unicode="&#x178;" horiz-adv-x="504" 
d="M427 689c0 15.333 -5.5 28.5 -16.5 39.5s-24.167 16.5 -39.5 16.5s-28.5 -5.5 -39.5 -16.5s-16.5 -24.167 -16.5 -39.5s5.5 -28.5 16.5 -39.5s24.167 -16.5 39.5 -16.5s28.5 5.5 39.5 16.5s16.5 24.167 16.5 39.5zM272 690c0 15.333 -5.5 28.5 -16.5 39.5
s-24.167 16.5 -39.5 16.5s-28.5 -5.5 -39.5 -16.5s-16.5 -24.167 -16.5 -39.5s5.5 -28.5 16.5 -39.5s24.167 -16.5 39.5 -16.5s28.5 5.5 39.5 16.5s16.5 24.167 16.5 39.5zM48 526l149 -260v-203l-64 -63h250l-63 63v203l145 260l64 64h-196l63 -62l-104 -192l-104 192
l62 62h-267z" />
    <glyph glyph-name="florin" unicode="&#x192;" horiz-adv-x="342" 
d="M44 -167c23.333 0 45.001 4.83008 65.001 14.4971s37.5 22.834 52.5 39.501s26.5 35.834 34.5 57.501s12 44.167 12 67.5v355h100v52h-100v95c0 14.667 4.16699 27.334 12.5 38.001s19.166 18.334 32.499 23.001l68 -68l85 116h-158c-23.333 0 -45 -4.83301 -65 -14.5
s-37.5 -22.834 -52.5 -39.501s-26.5 -35.667 -34.5 -57s-12 -43.666 -12 -66.999v-27l-67 -68h67v-408c0 -14 -4 -26.333 -12 -37s-19 -18.334 -33 -23.001l-68 68l-85 -117h158z" />
    <glyph glyph-name="circumflex" unicode="&#x2c6;" horiz-adv-x="333" 
d="M348 522l-161 161l-162 -161h18l144 61l143 -61h18z" />
    <glyph glyph-name="tilde" unicode="&#x2dc;" horiz-adv-x="292" 
d="M70 592c6 10 11.501 17.333 16.501 22s11.5 7 19.5 7s17.333 -4 28 -12c7.33301 -5.33301 14.166 -9.5 20.499 -12.5s14.5 -4.5 24.5 -4.5c21.333 0 43 9 65 27s35 40.333 39 67h-20c-10.667 -19.333 -22.334 -29 -35.001 -29c-7.33301 0 -15.666 3.66699 -24.999 11
c-6.66699 6 -13.5 10.5 -20.5 13.5s-16.5 4.5 -28.5 4.5c-21.333 0 -43 -9 -65 -27s-35 -40.333 -39 -67h20z" />
    <glyph glyph-name="endash" unicode="&#x2013;" horiz-adv-x="650" 
d="M0 204h650v61h-650v-61z" />
    <glyph glyph-name="emdash" unicode="&#x2014;" horiz-adv-x="704" 
d="M0 204h704v61h-704v-61z" />
    <glyph glyph-name="quoteleft" unicode="&#x2018;" horiz-adv-x="229" 
d="M57 538l116.001 -167.001v194c0 16.667 -6 31.334 -18 44.001s-26.333 19 -43 19c-18.667 0 -33.834 -6.5 -45.501 -19.5s-17.5 -27.167 -17.5 -42.5c0 -10.667 2.66699 -20 8 -28z" />
    <glyph glyph-name="quoteright" unicode="&#x2019;" horiz-adv-x="229" 
d="M180 538c5.33301 8 8.00098 17.334 8.00098 28.001c0 15.333 -5.83301 29.5 -17.5 42.5s-26.834 19.5 -45.501 19.5c-16.667 0 -31.167 -6.33301 -43.5 -19s-18.5 -27.334 -18.5 -44.001v-194z" />
    <glyph glyph-name="quotesinglbase" unicode="&#x201a;" horiz-adv-x="550" 
d="M30 295c0 -38.667 5.66699 -76.668 17 -114.001s27.5 -70.833 48.5 -100.5s46.833 -53.334 77.5 -71.001s64.667 -26.5 102 -26.5s71.333 8.83301 102 26.5s56.667 41.334 78 71.001s37.5 63.167 48.5 100.5s16.5 75.333 16.5 114s-5.5 76.667 -16.5 114
s-27.167 70.833 -48.5 100.5s-47.333 53.334 -78 71.001s-64.667 26.5 -102 26.5s-71.333 -8.66699 -102 -26s-56.667 -41 -78 -71s-37.5 -63.667 -48.5 -101s-16.5 -75.333 -16.5 -114zM275 43.999c-24 0 -43.333 7.5 -58 22.5s-25.334 34.667 -32.001 59
s-10.834 49.5 -12.501 75.5s-2.5 57.333 -2.5 94s0.833008 68.167 2.5 94.5s5.83398 51.5 12.501 75.5s17.334 43.5 32.001 58.5s34 22.5 58 22.5s43.333 -7.5 58 -22.5s25.334 -34.667 32.001 -59s10.834 -49.5 12.501 -75.5s2.5 -57.333 2.5 -94s-0.833008 -68 -2.5 -94
s-5.83398 -51.167 -12.501 -75.5s-17.334 -44 -32.001 -59s-34 -22.5 -58 -22.5z" />
    <glyph glyph-name="quotedblleft" unicode="&#x201c;" horiz-adv-x="415" 
d="M247 538l116.001 -167.001v194c0 16.667 -6 31.334 -18 44.001s-26.333 19 -43 19c-18.667 0 -33.834 -6.5 -45.501 -19.5s-17.5 -27.167 -17.5 -42.5c0 -10.667 2.66699 -20 8 -28zM68.001 537.999l116.001 -167.001v194c0 16.667 -6 31.334 -18 44.001
s-26.333 19 -43 19c-18.667 0 -33.834 -6.5 -45.501 -19.5s-17.5 -27.167 -17.5 -42.5c0 -10.667 2.66699 -20 8 -28z" />
    <glyph glyph-name="quotedblright" unicode="&#x201d;" horiz-adv-x="415" 
d="M180 538c5.33301 8 8.00098 17.334 8.00098 28.001c0 15.333 -5.83301 29.5 -17.5 42.5s-26.834 19.5 -45.501 19.5c-16.667 0 -31.167 -6.33301 -43.5 -19s-18.5 -27.334 -18.5 -44.001v-194zM359.001 538.001c5.33301 8 8.00098 17.334 8.00098 28.001
c0 15.333 -5.83301 29.5 -17.5 42.5s-26.834 19.5 -45.501 19.5c-16.667 0 -31 -6.33301 -43 -19s-18 -27.334 -18 -44.001v-194z" />
    <glyph glyph-name="quotedblbase" unicode="&#x201e;" horiz-adv-x="415" 
d="M163 27c5.33301 8 8.00098 17.334 8.00098 28.001c0 15.333 -5.83301 29.5 -17.5 42.5s-26.834 19.5 -45.501 19.5c-16.667 0 -31 -6.33301 -43 -19s-18 -27.334 -18 -44.001v-194zM343.001 27.001c5.33301 8 8 16.999 8 26.999c0 16 -6 30.5 -18 43.5s-27 19.5 -45 19.5
c-16.667 0 -31.167 -6.16699 -43.5 -18.5s-18.5 -27.166 -18.5 -44.499v-194z" />
    <glyph glyph-name="dagger" unicode="&#x2020;" horiz-adv-x="398" 
d="M88 590l64 -63v-145h-62l-63 63v-212l63 63h62v-463h94v463h62l63 -63v212l-63 -63h-62v145l63 63h-221z" />
    <glyph glyph-name="daggerdbl" unicode="&#x2021;" horiz-adv-x="408" 
d="M26 424l59 59h209l-208 -483h122v57l185 533h-367v-166z" />
    <glyph glyph-name="bullet" unicode="&#x2022;" horiz-adv-x="315" 
d="M257 337c0 27.333 -9.66699 50.666 -29 69.999s-42.666 29 -69.999 29s-50.833 -9.66699 -70.5 -29s-29.5 -42.666 -29.5 -69.999s9.83301 -50.666 29.5 -69.999s43.167 -29 70.5 -29s50.666 9.66699 69.999 29s29 42.666 29 69.999z" />
    <glyph glyph-name="ellipsis" unicode="&#x2026;" horiz-adv-x="833" 
d="M121 -8c18.667 0 34.5 6.5 47.5 19.5s19.5 28.5 19.5 46.5c0 18.667 -6.5 34.5 -19.5 47.5s-28.833 19.5 -47.5 19.5s-34.5 -6.5 -47.5 -19.5s-19.5 -28.833 -19.5 -47.5c0 -18 6.5 -33.5 19.5 -46.5s28.833 -19.5 47.5 -19.5zM392 -8c18 0 33.5 6.5 46.5 19.5
s19.5 28.5 19.5 46.5c0 18.667 -6.5 34.5 -19.5 47.5s-28.5 19.5 -46.5 19.5c-18.667 0 -34.5 -6.5 -47.5 -19.5s-19.5 -28.833 -19.5 -47.5c0 -18 6.5 -33.5 19.5 -46.5s28.833 -19.5 47.5 -19.5zM663 -8c18 0 33.5 6.5 46.5 19.5s19.5 28.5 19.5 46.5
c0 18.667 -6.5 34.5 -19.5 47.5s-28.5 19.5 -46.5 19.5c-18.667 0 -34.5 -6.5 -47.5 -19.5s-19.5 -28.833 -19.5 -47.5c0 -18 6.5 -33.5 19.5 -46.5s28.833 -19.5 47.5 -19.5z" />
    <glyph glyph-name="perthousand" unicode="&#x2030;" horiz-adv-x="750" 
d="M238 116c0 -31.333 11.5 -58.5 34.5 -81.5s50.167 -34.5 81.5 -34.5c32 0 59.333 11.5 82 34.5s34 50.167 34 81.5s-11.333 58.5 -34 81.5s-50 34.5 -82 34.5c-31.333 0 -58.5 -11.5 -81.5 -34.5s-34.5 -50.167 -34.5 -81.5zM505 116c0 -31.333 11.5 -58.5 34.5 -81.5
s50.167 -34.5 81.5 -34.5s58.5 11.5 81.5 34.5s34.5 50.167 34.5 81.5s-11.5 58.5 -34.5 81.5s-50.167 34.5 -81.5 34.5s-58.5 -11.5 -81.5 -34.5s-34.5 -50.167 -34.5 -81.5zM129 358c32 0 59.333 11.5 82 34.5s34 50.167 34 81.5c0 24 -7.66699 46.667 -23 68h131
l-290 -409v-133h49v45l312 442v103h-295c-31.333 0 -58.5 -11.333 -81.5 -34s-34.5 -50 -34.5 -82c0 -31.333 11.5 -58.5 34.5 -81.5s50.167 -34.5 81.5 -34.5zM354 28c-15.333 0 -25.5 8.16699 -30.5 24.5s-7.5 37.5 -7.5 63.5s2.5 47.167 7.5 63.5s15.167 24.5 30.5 24.5
s25.666 -8.33301 30.999 -25s8 -37.667 8 -63s-2.66699 -46.333 -8 -63s-15.666 -25 -30.999 -25zM621 28c-15.333 0 -25.5 8.16699 -30.5 24.5s-7.5 37.5 -7.5 63.5s2.5 47.167 7.5 63.5s15.167 24.5 30.5 24.5s25.5 -8.16699 30.5 -24.5s7.5 -37.5 7.5 -63.5
s-2.5 -47.167 -7.5 -63.5s-15.167 -24.5 -30.5 -24.5zM129 386c-15.333 0 -25.5 8.16699 -30.5 24.5s-7.5 37.5 -7.5 63.5s2.5 47.333 7.5 64s15.167 25 30.5 25s25.666 -8.33301 30.999 -25s8 -38 8 -64c0 -25.333 -2.66699 -46.333 -8 -63s-15.666 -25 -30.999 -25z" />
    <glyph glyph-name="guilsinglleft" unicode="&#x2039;" horiz-adv-x="388" 
d="M84 305c17.333 0 34.335 -3.3291 51.002 -9.99609s31.5 -16 44.5 -28s23.333 -26 31 -42s11.5 -33 11.5 -51c0 -19.333 -4.33301 -37.333 -13 -54s-20.667 -31 -36 -43s-32.5 -21.167 -51.5 -27.5s-38.5 -9.5 -58.5 -9.5h-41v-40h41c34.667 0 69 3.16699 103 9.5
s65.167 16.5 93.5 30.5s51 32.167 68 54.5s25.5 48.833 25.5 79.5c0 37.333 -12.5 68.833 -37.5 94.5s-56.833 43.167 -95.5 52.5c35.333 10 63.166 28.667 83.499 56s30.5 57.666 30.5 90.999c0 40 -16.167 72.667 -48.5 98s-73.833 38 -124.5 38
c-45.333 0 -85.666 -10.333 -120.999 -31l-24 -15l29 -30c4 2.66699 11 6.16699 21 10.5s22.333 6.5 37 6.5c32.667 0 58.334 -9.83301 77.001 -29.5s28 -40.834 28 -63.501c0 -12.667 -2.83301 -25.834 -8.5 -39.501s-13.834 -26.334 -24.501 -38.001
s-23.834 -21.167 -39.501 -28.5s-32.834 -11 -51.501 -11v-30z" />
    <glyph glyph-name="guilsinglright" unicode="&#x203a;" horiz-adv-x="446" 
d="M421 0l-59 59v108h62v61h-62v370h-59l-285 -397v-2v-32h220v-108l-59 -59h242zM238 228h-124l124 174v-174z" />
    <glyph glyph-name="trademark" unicode="&#x2122;" horiz-adv-x="725" 
d="M428 263l-38 36v211l96 -170l95 170v-211l-38 -36h145l-36 36v254l36 37h-105l-79 -140l-79 140h-112l36 -37v-254l-36 -36h115zM196 299v254h42l47 -45v82h-250v-82l47 45h43v-254l-37 -36h145z" />
    </font>
</defs>
</svg>
